<svg width="260" height="344" viewBox="0 0 260 344" fill="none" xmlns="http://www.w3.org/2000/svg">
<g clip-path="url(#clip0_52_185)">
<path d="M171.016 40.1688H12.8783C9.46403 40.173 6.19077 41.5491 3.77651 43.9954C1.36225 46.4416 0.00411107 49.7582 0 53.2177L0 144.439C0.00411107 147.899 1.36225 151.215 3.77651 153.661C6.19077 156.108 9.46403 157.484 12.8783 157.488H171.016C174.431 157.484 177.704 156.108 180.118 153.661C182.532 151.215 183.891 147.899 183.895 144.439V53.2177C183.891 49.7582 182.532 46.4416 180.118 43.9954C177.704 41.5491 174.431 40.173 171.016 40.1688ZM182.76 144.439C182.76 147.595 181.522 150.621 179.32 152.853C177.118 155.084 174.131 156.338 171.016 156.338H12.8783C11.3362 156.338 9.80914 156.03 8.38439 155.432C6.95965 154.834 5.66509 153.958 4.57464 152.853C3.48419 151.748 2.61919 150.436 2.02904 148.993C1.4389 147.549 1.13515 146.002 1.13515 144.439V130.847C1.13515 107.103 10.4442 84.331 27.0145 67.5412C43.5848 50.7514 66.059 41.319 89.4929 41.319H171.016C174.131 41.319 177.118 42.5726 179.32 44.8041C181.522 47.0355 182.76 50.062 182.76 53.2177V144.439Z" fill="#CBEAF6"/>
<path d="M98.1609 89H29V90.1502H98.1609V89Z" fill="#212428"/>
<path d="M141.549 101H30V102.15H141.549V101Z" fill="#212428"/>
<path d="M99.5406 94.2015C102.048 94.2015 104.081 92.1417 104.081 89.6008C104.081 87.0598 102.048 85 99.5406 85C97.0329 85 95 87.0598 95 89.6008C95 92.1417 97.0329 94.2015 99.5406 94.2015Z" fill="#212428"/>
<path d="M27.8112 94.2015C30.3189 94.2015 32.3518 92.1417 32.3518 89.6008C32.3518 87.0598 30.3189 85 27.8112 85C25.3035 85 23.2706 87.0598 23.2706 89.6008C23.2706 92.1417 25.3035 94.2015 27.8112 94.2015Z" fill="#212428"/>
<path d="M98.1609 113H29V114.15H98.1609V113Z" fill="#212428"/>
<path d="M99.5406 118.202C102.048 118.202 104.081 116.142 104.081 113.601C104.081 111.06 102.048 109 99.5406 109C97.0329 109 95 111.06 95 113.601C95 116.142 97.0329 118.202 99.5406 118.202Z" fill="#212428"/>
<path d="M27.8112 118.202C30.3189 118.202 32.3518 116.142 32.3518 113.601C32.3518 111.06 30.3189 109 27.8112 109C25.3035 109 23.2706 111.06 23.2706 113.601C23.2706 116.142 25.3035 118.202 27.8112 118.202Z" fill="#212428"/>
<path d="M98.1609 125H29V126.15H98.1609V125Z" fill="#212428"/>
<path d="M99.5406 130.202C102.048 130.202 104.081 128.142 104.081 125.601C104.081 123.06 102.048 121 99.5406 121C97.0329 121 95 123.06 95 125.601C95 128.142 97.0329 130.202 99.5406 130.202Z" fill="#212428"/>
<path d="M27.8112 130.202C30.3189 130.202 32.3518 128.142 32.3518 125.601C32.3518 123.06 30.3189 121 27.8112 121C25.3035 121 23.2706 123.06 23.2706 125.601C23.2706 128.142 25.3035 130.202 27.8112 130.202Z" fill="#212428"/>
<path d="M28.5406 106.202C31.0483 106.202 33.0812 104.142 33.0812 101.601C33.0812 99.0599 31.0483 97.0001 28.5406 97.0001C26.0329 97.0001 24 99.0599 24 101.601C24 104.142 26.0329 106.202 28.5406 106.202Z" fill="#212428"/>
<path d="M143.541 106.201C146.048 106.201 148.081 104.142 148.081 101.601C148.081 99.0597 146.048 96.9999 143.541 96.9999C141.033 96.9999 139 99.0597 139 101.601C139 104.142 141.033 106.201 143.541 106.201Z" fill="#212428"/>
<path d="M141.549 137H30V138.15H141.549V137Z" fill="#212428"/>
<path d="M28.5406 142.202C31.0483 142.202 33.0812 140.142 33.0812 137.601C33.0812 135.06 31.0483 133 28.5406 133C26.0329 133 24 135.06 24 137.601C24 140.142 26.0329 142.202 28.5406 142.202Z" fill="#212428"/>
<path d="M141.025 142.52C143.533 142.52 145.565 140.46 145.565 137.919C145.565 135.378 143.533 133.318 141.025 133.318C138.517 133.318 136.484 135.378 136.484 137.919C136.484 140.46 138.517 142.52 141.025 142.52Z" fill="#212428"/>
<path d="M165.355 51.4807H145.074C142.743 51.4807 140.853 53.3956 140.853 55.7577V76.3071C140.853 78.6692 142.743 80.5841 145.074 80.5841H165.355C167.686 80.5841 169.576 78.6692 169.576 76.3071V55.7577C169.576 53.3956 167.686 51.4807 165.355 51.4807Z" fill="#212428"/>
<path d="M157.325 55.1057H161.777C162.897 55.1057 163.97 55.5563 164.762 56.3584C165.554 57.1605 165.998 58.2484 165.998 59.3827V72.6823C165.998 73.8166 165.554 74.9045 164.762 75.7066C163.97 76.5087 162.897 76.9593 161.777 76.9593H148.651C147.532 76.9593 146.458 76.5087 145.667 75.7066C144.875 74.9045 144.43 73.8166 144.43 72.6823V68.1715C144.43 66.4556 144.764 64.7566 145.412 63.1714C146.06 61.5862 147.01 60.1458 148.207 58.9326C149.405 57.7193 150.826 56.7569 152.391 56.1003C153.955 55.4437 155.632 55.1057 157.325 55.1057Z" fill="#3887FE"/>
<path d="M154.363 50.7925C154.251 50.9058 154.162 51.0403 154.102 51.1883C154.041 51.3363 154.01 51.4949 154.01 51.6551C154.01 51.8153 154.041 51.974 154.102 52.122C154.162 52.27 154.251 52.4045 154.363 52.5178C154.447 52.6005 154.543 52.6703 154.647 52.7247V55.6561H155.782V52.7247C155.886 52.6703 155.982 52.6005 156.066 52.5178C156.291 52.289 156.418 51.9787 156.418 51.6551C156.418 51.3316 156.291 51.0213 156.066 50.7925C155.84 50.5637 155.534 50.4352 155.214 50.4352C154.895 50.4352 154.589 50.5637 154.363 50.7925Z" fill="#3F3D56"/>
<path d="M157.201 50.7925C157.089 50.9058 157 51.0403 156.94 51.1883C156.879 51.3363 156.848 51.4949 156.848 51.6551C156.848 51.8153 156.879 51.974 156.94 52.122C157 52.27 157.089 52.4045 157.201 52.5178C157.285 52.6005 157.38 52.6703 157.485 52.7247V55.6561H158.62V52.7247C158.724 52.6703 158.819 52.6005 158.904 52.5178C159.129 52.289 159.256 51.9787 159.256 51.6551C159.256 51.3316 159.129 51.0213 158.904 50.7925C158.678 50.5637 158.371 50.4352 158.052 50.4352C157.733 50.4352 157.427 50.5637 157.201 50.7925Z" fill="#3F3D56"/>
<path d="M160.039 50.7925C159.927 50.9058 159.838 51.0403 159.778 51.1883C159.717 51.3363 159.686 51.4949 159.686 51.6551C159.686 51.8153 159.717 51.974 159.778 52.122C159.838 52.27 159.927 52.4045 160.039 52.5178C160.123 52.6005 160.218 52.6703 160.322 52.7247V55.6561H161.458V52.7247C161.562 52.6703 161.657 52.6005 161.741 52.5178C161.967 52.289 162.094 51.9787 162.094 51.6551C162.094 51.3316 161.967 51.0213 161.741 50.7925C161.516 50.5637 161.209 50.4352 160.89 50.4352C160.571 50.4352 160.264 50.5637 160.039 50.7925Z" fill="#3F3D56"/>
<path d="M155.782 79.2457V76.3143H154.647V79.2457C154.543 79.3001 154.447 79.3699 154.363 79.4526C154.195 79.6233 154.08 79.8406 154.033 80.0773C153.987 80.3139 154.011 80.5592 154.102 80.7821C154.193 81.0051 154.347 81.1956 154.545 81.3296C154.743 81.4637 154.976 81.5352 155.214 81.5352C155.452 81.5352 155.685 81.4637 155.883 81.3296C156.081 81.1956 156.235 81.0051 156.327 80.7821C156.418 80.5592 156.442 80.3139 156.395 80.0773C156.349 79.8406 156.234 79.6233 156.066 79.4526C155.982 79.3699 155.886 79.3001 155.782 79.2457Z" fill="#3F3D56"/>
<path d="M152.944 79.2457V76.3143H151.809V79.2457C151.705 79.3001 151.609 79.3699 151.525 79.4526C151.357 79.6233 151.242 79.8406 151.195 80.0773C151.149 80.3139 151.173 80.5592 151.264 80.7821C151.355 81.0051 151.509 81.1956 151.707 81.3296C151.905 81.4637 152.138 81.5352 152.376 81.5352C152.615 81.5352 152.847 81.4637 153.045 81.3296C153.243 81.1956 153.398 81.0051 153.489 80.7821C153.58 80.5592 153.604 80.3139 153.557 80.0773C153.511 79.8406 153.396 79.6233 153.228 79.4526C153.144 79.3699 153.048 79.3001 152.944 79.2457Z" fill="#3F3D56"/>
<path d="M150.106 79.2457V76.3143H148.971V79.2457C148.867 79.3001 148.771 79.3699 148.687 79.4526C148.519 79.6233 148.404 79.8406 148.358 80.0773C148.311 80.3139 148.335 80.5592 148.426 80.7821C148.517 81.0051 148.672 81.1956 148.87 81.3296C149.068 81.4637 149.3 81.5352 149.538 81.5352C149.777 81.5352 150.009 81.4637 150.207 81.3296C150.405 81.1956 150.56 81.0051 150.651 80.7821C150.742 80.5592 150.766 80.3139 150.719 80.0773C150.673 79.8406 150.558 79.6233 150.39 79.4526C150.306 79.3699 150.21 79.3001 150.106 79.2457Z" fill="#3F3D56"/>
<path d="M168.222 61.3845C168.39 61.5551 168.605 61.6713 168.838 61.7184C169.072 61.7654 169.314 61.7413 169.534 61.6489C169.754 61.5566 169.942 61.4002 170.074 61.1996C170.207 60.999 170.277 60.7631 170.277 60.5218C170.277 60.2806 170.207 60.0447 170.074 59.8441C169.942 59.6434 169.754 59.4871 169.534 59.3947C169.314 59.3024 169.072 59.2782 168.838 59.3253C168.605 59.3724 168.39 59.4886 168.222 59.6592C168.14 59.7443 168.071 59.8412 168.018 59.9467H165.125V61.0969H168.018C168.071 61.2024 168.14 61.2993 168.222 61.3845Z" fill="#3F3D56"/>
<path d="M168.222 62.5347C168.14 62.6198 168.071 62.7167 168.018 62.8222H165.125V63.9724H168.018C168.071 64.0779 168.14 64.1748 168.222 64.26C168.39 64.4306 168.605 64.5468 168.838 64.5938C169.072 64.6409 169.314 64.6168 169.534 64.5244C169.754 64.4321 169.942 64.2757 170.074 64.0751C170.207 63.8745 170.277 63.6386 170.277 63.3973C170.277 63.156 170.207 62.9202 170.074 62.7196C169.942 62.5189 169.754 62.3626 169.534 62.2702C169.314 62.1779 169.072 62.1537 168.838 62.2008C168.605 62.2479 168.39 62.3641 168.222 62.5347Z" fill="#3F3D56"/>
<path d="M168.222 65.4101C168.14 65.4952 168.071 65.5921 168.018 65.6976H165.125V66.8478H168.018C168.071 66.9533 168.14 67.0502 168.222 67.1353C168.39 67.3059 168.605 67.4221 168.838 67.4692C169.072 67.5163 169.314 67.4921 169.534 67.3998C169.754 67.3075 169.942 67.1511 170.074 66.9505C170.207 66.7498 170.277 66.514 170.277 66.2727C170.277 66.0314 170.207 65.7955 170.074 65.5949C169.942 65.3943 169.754 65.2379 169.534 65.1456C169.314 65.0533 169.072 65.0291 168.838 65.0762C168.605 65.1232 168.39 65.2394 168.222 65.4101Z" fill="#3F3D56"/>
<path d="M168.222 68.2855C168.14 68.3707 168.071 68.4676 168.018 68.5731H165.125V69.7233H168.018C168.071 69.8288 168.14 69.9257 168.222 70.0108C168.39 70.1814 168.605 70.2976 168.838 70.3447C169.072 70.3918 169.314 70.3676 169.534 70.2753C169.754 70.1829 169.942 70.0266 170.074 69.826C170.207 69.6253 170.277 69.3895 170.277 69.1482C170.277 68.9069 170.207 68.671 170.074 68.4704C169.942 68.2698 169.754 68.1134 169.534 68.0211C169.314 67.9288 169.072 67.9046 168.838 67.9517C168.605 67.9987 168.39 68.1149 168.222 68.2855Z" fill="#3F3D56"/>
<path d="M168.222 71.161C168.14 71.2462 168.071 71.3431 168.018 71.4486H165.125V72.5988H168.018C168.071 72.7043 168.14 72.8012 168.222 72.8863C168.39 73.0569 168.605 73.1731 168.838 73.2202C169.072 73.2673 169.314 73.2431 169.534 73.1508C169.754 73.0584 169.942 72.9021 170.074 72.7014C170.207 72.5008 170.277 72.265 170.277 72.0237C170.277 71.7824 170.207 71.5465 170.074 71.3459C169.942 71.1453 169.754 70.9889 169.534 70.8966C169.314 70.8042 169.072 70.7801 168.838 70.8272C168.605 70.8742 168.39 70.9904 168.222 71.161Z" fill="#3F3D56"/>
<path d="M142.207 71.161C142.038 70.9904 141.824 70.8742 141.59 70.8272C141.357 70.7801 141.115 70.8042 140.895 70.8966C140.675 70.9889 140.487 71.1453 140.354 71.3459C140.222 71.5465 140.151 71.7824 140.151 72.0237C140.151 72.265 140.222 72.5008 140.354 72.7014C140.487 72.9021 140.675 73.0584 140.895 73.1508C141.115 73.2431 141.357 73.2673 141.59 73.2202C141.824 73.1731 142.038 73.0569 142.207 72.8863C142.288 72.8012 142.357 72.7043 142.411 72.5988H145.304V71.4486H142.411C142.357 71.3431 142.288 71.2462 142.207 71.161Z" fill="#3F3D56"/>
<path d="M142.207 68.2855C142.038 68.1149 141.824 67.9987 141.59 67.9517C141.357 67.9046 141.115 67.9288 140.895 68.0211C140.675 68.1134 140.487 68.2698 140.354 68.4704C140.222 68.671 140.151 68.9069 140.151 69.1482C140.151 69.3895 140.222 69.6253 140.354 69.826C140.487 70.0266 140.675 70.1829 140.895 70.2753C141.115 70.3676 141.357 70.3918 141.59 70.3447C141.824 70.2976 142.038 70.1814 142.207 70.0108C142.288 69.9257 142.357 69.8288 142.411 69.7233H145.304V68.5731H142.411C142.357 68.4676 142.288 68.3707 142.207 68.2855Z" fill="#3F3D56"/>
<path d="M243.718 60.6438L229.302 127.982L231.839 145.953C238.23 152.095 232.756 182.241 227.932 188.274C227.932 188.274 217.167 162.2 201.229 162.004C196.751 161.952 192.375 162.038 188.516 162.361C185.743 162.545 182.991 162.974 180.292 163.643C165.535 167.669 167.436 162.487 167.436 162.487L179.338 68.8502L188.3 59.4937L195.48 52L198.743 43.8279L221.197 41.8785L224.79 50.4067L232.543 51.5687L238.088 52.3965C239.006 52.5344 239.886 52.8618 240.674 53.3583C241.461 53.8549 242.14 54.51 242.668 55.2831C243.196 56.0563 243.561 56.931 243.742 57.8531C243.923 58.7752 243.915 59.725 243.718 60.6438Z" fill="#212428"/>
<path d="M232.543 51.5686L223.838 61.6299L221.121 62.3281L220.45 65.5457L201.36 87.6098L192.218 67.9283L189.337 66.3537L190.114 63.3972L188.3 59.4934L190.472 56.002L193.31 53.1266L195.479 52L198.743 43.8279L221.197 41.8783L224.79 50.4069L228.499 49.676L232.543 51.5686Z" fill="#3887FE"/>
<path d="M156.601 175.792L161.936 159.385L171.611 161.166L165.361 178.309C165.746 179.311 165.847 180.403 165.653 181.46C165.46 182.518 164.979 183.5 164.264 184.296C163.55 185.092 162.631 185.67 161.61 185.965C160.589 186.261 159.507 186.262 158.485 185.968C157.464 185.675 156.544 185.099 155.828 184.304C155.112 183.51 154.629 182.529 154.433 181.472C154.237 180.414 154.336 179.323 154.719 178.319C155.102 177.316 155.754 176.441 156.601 175.792Z" fill="#FFB6B6"/>
<path d="M183.809 67.6857L179.339 68.8502L168.093 120.973L165.659 123.439L166.668 125.684L165.659 129.633L158.24 167.123L174.668 173.751L191.4 96.3771L183.809 67.6857Z" fill="#212428"/>
<path d="M209.172 334.927L201.608 334.926L198.01 305.364L209.174 305.364L209.172 334.927Z" fill="#FFB6B6"/>
<path d="M209.439 342.922L186.178 342.921V342.623C186.178 340.19 187.132 337.857 188.83 336.137C190.528 334.416 192.83 333.45 195.232 333.45H195.232L199.481 330.184L207.408 333.45L209.439 333.45L209.439 342.922Z" fill="#212428"/>
<path d="M167.739 334.927L160.175 334.926L156.577 305.364L167.741 305.364L167.739 334.927Z" fill="#FFB6B6"/>
<path d="M168.005 342.922L144.745 342.921V342.623C144.745 340.19 145.699 337.857 147.397 336.137C149.095 334.416 151.397 333.45 153.798 333.45H153.799L158.048 330.184L165.975 333.45L168.006 333.45L168.005 342.922Z" fill="#212428"/>
<path d="M229.204 334.032C229.468 334.044 229.729 333.974 229.952 333.831C230.175 333.688 230.349 333.479 230.451 333.232C230.553 332.985 230.578 332.712 230.522 332.451C230.465 332.189 230.331 331.952 230.137 331.77L230.049 331.414C230.061 331.386 230.072 331.357 230.084 331.329C230.35 330.693 230.795 330.151 231.364 329.77C231.933 329.39 232.601 329.188 233.282 329.191C233.964 329.193 234.63 329.4 235.196 329.785C235.762 330.169 236.203 330.715 236.465 331.353C237.508 333.9 238.837 336.451 239.164 339.143C239.308 340.333 239.247 341.54 238.984 342.709C241.435 337.292 242.708 331.404 242.716 325.444C242.717 323.949 242.635 322.455 242.47 320.968C242.335 319.75 242.147 318.54 241.906 317.339C240.592 310.823 237.772 304.715 233.676 299.517C231.694 298.422 230.09 296.736 229.083 294.689C228.717 293.953 228.459 293.167 228.316 292.356C228.54 292.386 229.16 288.935 228.991 288.723C229.303 288.244 229.86 288.006 230.201 287.538C231.893 285.213 234.225 285.619 235.443 288.779C238.044 290.109 238.069 292.315 236.473 294.436C235.458 295.786 235.318 297.612 234.427 299.057C234.519 299.176 234.614 299.291 234.706 299.41C236.381 301.592 237.842 303.936 239.066 306.408C238.768 303.639 239.123 300.838 240.102 298.236C241.095 295.811 242.954 293.768 244.592 291.671C245.025 291.108 245.613 290.688 246.282 290.463C246.951 290.238 247.671 290.22 248.35 290.41C249.03 290.599 249.638 290.989 250.099 291.529C250.56 292.069 250.853 292.736 250.94 293.444C250.943 293.475 250.946 293.506 250.95 293.537C250.706 293.676 250.468 293.824 250.235 293.98C249.943 294.178 249.716 294.461 249.585 294.792C249.453 295.123 249.424 295.487 249.5 295.835C249.576 296.183 249.754 296.5 250.011 296.744C250.268 296.988 250.592 297.147 250.94 297.201L250.975 297.207C250.889 298.095 250.735 298.976 250.517 299.841C252.618 308.073 248.082 311.072 241.605 311.207C241.462 311.281 241.323 311.355 241.18 311.426C242.41 314.957 243.181 318.636 243.475 322.369C243.641 324.571 243.631 326.783 243.445 328.984L243.456 328.906C243.926 326.459 245.214 324.251 247.104 322.655C249.911 320.318 253.877 319.458 256.905 317.58C257.227 317.371 257.601 317.259 257.984 317.258C258.366 317.257 258.741 317.367 259.064 317.575C259.386 317.782 259.644 318.079 259.806 318.43C259.967 318.782 260.027 319.172 259.976 319.557L259.964 319.639C259.513 319.825 259.073 320.039 258.648 320.281C258.405 320.42 258.167 320.568 257.934 320.724C257.641 320.922 257.414 321.205 257.283 321.536C257.152 321.867 257.122 322.231 257.198 322.579C257.275 322.927 257.453 323.244 257.71 323.488C257.967 323.732 258.29 323.891 258.638 323.945L258.674 323.951C258.699 323.955 258.721 323.958 258.747 323.962C257.976 325.828 256.893 327.546 255.547 329.04C254.233 336.227 248.59 336.909 242.555 334.816H242.551C241.889 337.732 240.929 340.57 239.688 343.285H229.46C229.424 343.17 229.391 343.051 229.358 342.936C230.304 342.996 231.255 342.938 232.188 342.765C231.429 341.821 230.67 340.87 229.911 339.927C229.894 339.909 229.878 339.891 229.863 339.871C229.478 339.388 229.09 338.909 228.705 338.426L228.705 338.426C228.684 336.946 228.852 335.469 229.204 334.032Z" fill="#CBEAF6"/>
<path d="M114.808 343.316C114.808 343.406 114.825 343.495 114.859 343.578C114.893 343.661 114.943 343.737 115.005 343.8C115.068 343.864 115.143 343.914 115.225 343.949C115.307 343.983 115.395 344 115.484 344H259.245C259.424 344 259.596 343.928 259.723 343.8C259.849 343.671 259.92 343.497 259.92 343.316C259.92 343.134 259.849 342.96 259.723 342.832C259.596 342.703 259.424 342.631 259.245 342.631H115.484C115.395 342.631 115.307 342.649 115.225 342.683C115.143 342.717 115.068 342.768 115.005 342.831C114.943 342.895 114.893 342.97 114.859 343.053C114.825 343.137 114.808 343.226 114.808 343.316Z" fill="#CCCCCC"/>
<path d="M228.309 152.184L169.431 155.044L153.539 228.933L158.079 241.032L151.667 246.775L158.079 254.834L156.427 296.575L152.549 306.721L155.519 319.486L169.008 318.798L180.978 253.859L179.12 246.358L183.572 239.783L188.937 210.675L192.742 238.882L192.086 251.439L195.58 264.761L197.52 321.786L210.838 321.96L213.702 316.234L210.574 308.559L213.702 303.193C213.702 303.193 223.641 255.523 218.243 245.235L227.454 193.726L226.333 185.951L229.989 179.551L234.685 153.293L228.309 152.184Z" fill="#212428"/>
<path d="M175.057 67.6698L190.401 75.1984L187.38 84.6801L171.436 76.1355C170.404 76.3894 169.323 76.3467 168.314 76.0122C167.305 75.6777 166.408 75.0646 165.724 74.2419C165.04 73.4192 164.596 72.4194 164.442 71.3551C164.288 70.2907 164.43 69.2039 164.852 68.2168C165.274 67.2297 165.96 66.3816 166.832 65.7676C167.704 65.1537 168.727 64.7983 169.787 64.7415C170.848 64.6846 171.902 64.9286 172.833 65.4459C173.764 65.9632 174.534 66.7334 175.057 67.6698Z" fill="#FFB6B6"/>
<path d="M222.124 110.642C220.098 109.559 218.534 107.761 217.728 105.589L178.657 85.8845L185.91 69.513L220.658 85.8845L231.722 53.3741L233.857 53.7828C236.445 54.2783 238.74 55.779 240.252 57.9648C241.764 60.1506 242.373 62.8485 241.949 65.4829L235.784 103.828C235.536 105.314 234.944 106.718 234.055 107.926C233.167 109.134 232.008 110.111 230.674 110.776C229.34 111.442 227.87 111.776 226.383 111.753C224.897 111.73 223.437 111.349 222.124 110.642Z" fill="#212428"/>
<path d="M201.229 162.004C196.5 166.915 192.2 165.506 188.516 162.361L196.155 150.18L201.229 162.004Z" fill="#3887FE"/>
<path d="M207.563 40.2511C216.549 40.2511 223.834 32.8701 223.834 23.7652C223.834 14.6603 216.549 7.2793 207.563 7.2793C198.577 7.2793 191.293 14.6603 191.293 23.7652C191.293 32.8701 198.577 40.2511 207.563 40.2511Z" fill="#FFB6B6"/>
<path d="M226.351 30.6525C225.747 30.0796 225.002 29.6823 224.194 29.5023C225.079 29.9909 225.193 31.1012 225.176 32.2283C225.176 32.435 225.164 32.6367 225.158 32.8377C224.05 34.5505 222.626 36.0306 220.964 37.197C220.964 37.197 215.51 39.2733 212.82 39.503C214.227 37.4385 216.208 33.7464 217.615 31.6875C218.409 30.6472 219.032 29.484 219.46 28.2426C219.667 27.618 219.724 26.9521 219.625 26.3008C219.527 25.6494 219.275 25.0315 218.892 24.4988C218.49 24.0108 217.946 23.6633 217.338 23.5056C216.73 23.3479 216.088 23.388 215.504 23.6201C214.92 23.8523 214.422 24.2648 214.082 24.7993C213.742 25.3337 213.576 25.963 213.608 26.5982C212.61 26.1781 213.388 24.5286 212.649 23.7171C211.531 22.4888 211.366 21.3235 213.064 20.4788C214.01 20.0082 211.86 18.6906 210.839 18.3913C209.804 18.1452 208.729 18.1316 207.689 18.3514C204.686 18.817 201.752 19.8751 198.71 19.8178C198.099 19.8055 197.492 19.738 196.893 19.6162C197.472 17.9378 197.466 16.109 196.876 14.4347C196.207 15.9519 195.264 17.329 194.095 18.4952C192.835 17.7713 191.9 16.5809 191.487 15.1738L191.49 15.1653C191.63 15.0868 191.766 15.0052 191.899 14.9205C192.086 14.7948 192.231 14.6133 192.313 14.4009C192.394 14.1885 192.409 13.9557 192.355 13.7345C192.301 13.5133 192.18 13.3146 192.01 13.1656C191.84 13.0166 191.628 12.9248 191.404 12.9027L191.371 12.8992C191.491 12.0747 191.74 11.2748 192.109 10.5298C192.438 9.86575 192.834 9.23759 193.289 8.65511C193.725 8.69742 194.165 8.69366 194.6 8.64388L194.629 8.64122C194.83 8.61668 195.018 8.52754 195.166 8.38687C195.313 8.24619 195.413 8.06135 195.449 7.85938C195.486 7.65741 195.458 7.44891 195.369 7.26438C195.28 7.07985 195.135 6.92897 194.955 6.8338C194.924 6.81617 194.893 6.79837 194.861 6.78043L194.861 6.77678C195.726 5.84288 196.644 4.86418 197.853 4.47444C199.004 4.10603 200.48 4.45704 201.008 5.56678C203.954 2.33469 208.994 -2.25427 211.707 1.27099C214.46 4.85616 219.585 3.81356 222.951 8.14325C222.122 8.63284 221.395 9.28142 220.811 10.0524C221.878 9.88878 222.962 9.86557 224.035 9.98332C224.28 10.4619 224.412 10.9921 224.418 11.5314C224.425 12.0708 224.307 12.6042 224.074 13.089C225.051 14.0612 227.003 15.7977 225.72 16.0622C226.957 18.2704 227.659 20.7442 227.768 23.2805C227.878 25.8168 227.392 28.3433 226.351 30.6525Z" fill="#212428"/>
<path d="M142.728 56.0815C145.235 56.0815 147.268 54.0217 147.268 51.4808C147.268 48.9398 145.235 46.88 142.728 46.88C140.22 46.88 138.187 48.9398 138.187 51.4808C138.187 54.0217 140.22 56.0815 142.728 56.0815Z" fill="#3887FE"/>
</g>
<defs>
<clipPath id="clip0_52_185">
<rect width="260" height="344" fill="white"/>
</clipPath>
</defs>
</svg>
