<svg width="477" height="344" viewBox="0 0 477 344" fill="none" xmlns="http://www.w3.org/2000/svg">
<path d="M103.353 275.036C117.053 275.036 128.159 263.941 128.159 250.254C128.159 236.568 117.053 225.473 103.353 225.473C89.6524 225.473 78.546 236.568 78.546 250.254C78.546 263.941 89.6524 275.036 103.353 275.036Z" fill="#F2F2F2"/>
<path d="M107.386 271.409C121.087 271.409 132.193 260.314 132.193 246.628C132.193 232.941 121.087 221.846 107.386 221.846C93.6859 221.846 82.5796 232.941 82.5796 246.628C82.5796 260.314 93.6859 271.409 107.386 271.409Z" fill="#3887FE"/>
<path d="M434.29 219.208H127.364V220.044H434.29V219.208Z" fill="#3F3D56"/>
<path d="M286.322 39.8024H177.382V37.5593H127.984V39.8024H18.5956C17.6279 39.8024 16.6697 39.9928 15.7757 40.3627C14.8816 40.7327 14.0693 41.2749 13.385 41.9585C12.7007 42.6421 12.1579 43.4536 11.7876 44.3467C11.4173 45.2399 11.2267 46.1971 11.2267 47.1639V196.184C11.2267 198.137 12.003 200.009 13.385 201.39C14.7669 202.77 16.6413 203.546 18.5956 203.546H286.322C288.276 203.546 290.15 202.77 291.532 201.39C292.914 200.009 293.69 198.137 293.69 196.184V47.1639C293.69 46.1971 293.5 45.2399 293.13 44.3467C292.759 43.4536 292.216 42.6421 291.532 41.9585C290.848 41.2749 290.036 40.7327 289.142 40.3627C288.247 39.9928 287.289 39.8024 286.322 39.8024Z" fill="#212428"/>
<path d="M283.811 52.812H21.1062V200.854H283.811V52.812Z" fill="#3887FE"/>
<path d="M152.234 48.7745C153.722 48.7745 154.928 47.5694 154.928 46.0828C154.928 44.5962 153.722 43.3911 152.234 43.3911C150.746 43.3911 149.54 44.5962 149.54 46.0828C149.54 47.5694 150.746 48.7745 152.234 48.7745Z" fill="#3887FE"/>
<path opacity="0.1" d="M208.682 200.854H21.1062V52.8123L208.682 200.854Z" fill="black"/>
<path d="M62.2116 189.776C76.1579 189.776 87.4636 178.482 87.4636 164.55C87.4636 150.617 76.1579 139.323 62.2116 139.323C48.2653 139.323 36.9596 150.617 36.9596 164.55C36.9596 178.482 48.2653 189.776 62.2116 189.776Z" fill="#F2F2F2"/>
<path d="M238.07 132.652H213.53V137.775H238.07V132.652Z" fill="#212428"/>
<path d="M267.737 92.7703H183.863V94.9656H267.737V92.7703Z" fill="#212428"/>
<path d="M267.737 99.7222H183.863V101.918H267.737V99.7222Z" fill="#212428"/>
<path d="M267.737 106.674H183.863V108.87H267.737V106.674Z" fill="#212428"/>
<path d="M267.737 113.626H183.863V115.821H267.737V113.626Z" fill="#212428"/>
<path d="M267.737 120.578H183.863V122.773H267.737V120.578Z" fill="#212428"/>
<path d="M267.737 55.8154H257.482V66.0603H267.737V55.8154Z" fill="#F2F2F2"/>
<path d="M272.498 70.8167H260.045V58.3765H272.498V70.8167ZM260.587 70.2759H271.957V58.9174H260.587V70.2759Z" fill="#3F3D56"/>
<path d="M301.067 198.162H275.428V196.317C275.428 196.269 275.419 196.221 275.401 196.177C275.382 196.133 275.355 196.092 275.321 196.058C275.287 196.024 275.247 195.997 275.202 195.979C275.158 195.961 275.11 195.951 275.062 195.951H266.272C266.224 195.951 266.176 195.961 266.132 195.979C266.087 195.997 266.047 196.024 266.013 196.058C265.979 196.092 265.952 196.133 265.933 196.177C265.915 196.221 265.906 196.269 265.906 196.317V198.162H260.412V196.317C260.412 196.269 260.402 196.221 260.384 196.177C260.365 196.133 260.338 196.092 260.304 196.058C260.27 196.024 260.23 195.997 260.186 195.979C260.141 195.961 260.094 195.951 260.045 195.951H251.255C251.207 195.951 251.159 195.961 251.115 195.979C251.071 195.997 251.03 196.024 250.996 196.058C250.962 196.092 250.935 196.133 250.917 196.177C250.898 196.221 250.889 196.269 250.889 196.317V198.162H245.395V196.317C245.395 196.269 245.386 196.221 245.367 196.177C245.349 196.133 245.322 196.092 245.288 196.058C245.254 196.024 245.213 195.997 245.169 195.979C245.124 195.961 245.077 195.951 245.029 195.951H236.238C236.19 195.951 236.143 195.961 236.098 195.979C236.054 195.997 236.013 196.024 235.979 196.058C235.945 196.092 235.918 196.133 235.9 196.177C235.882 196.221 235.872 196.269 235.872 196.317V198.162H230.378V196.317C230.378 196.269 230.369 196.221 230.35 196.177C230.332 196.133 230.305 196.092 230.271 196.058C230.237 196.024 230.197 195.997 230.152 195.979C230.108 195.961 230.06 195.951 230.012 195.951H221.222C221.174 195.951 221.126 195.961 221.082 195.979C221.037 195.997 220.997 196.024 220.963 196.058C220.929 196.092 220.902 196.133 220.883 196.177C220.865 196.221 220.855 196.269 220.855 196.317V198.162H215.362V196.317C215.362 196.269 215.352 196.221 215.334 196.177C215.315 196.133 215.288 196.092 215.254 196.058C215.22 196.024 215.18 195.997 215.135 195.979C215.091 195.961 215.043 195.951 214.995 195.951H206.205C206.157 195.951 206.109 195.961 206.065 195.979C206.02 195.997 205.98 196.024 205.946 196.058C205.912 196.092 205.885 196.133 205.867 196.177C205.848 196.221 205.839 196.269 205.839 196.317V198.162H200.345V196.317C200.345 196.269 200.335 196.221 200.317 196.177C200.299 196.133 200.272 196.092 200.238 196.058C200.204 196.024 200.163 195.997 200.119 195.979C200.074 195.961 200.027 195.951 199.979 195.951H191.188C191.14 195.951 191.093 195.961 191.048 195.979C191.004 195.997 190.963 196.024 190.929 196.058C190.895 196.092 190.868 196.133 190.85 196.177C190.832 196.221 190.822 196.269 190.822 196.317V198.162H185.328V196.317C185.328 196.269 185.319 196.221 185.3 196.177C185.282 196.133 185.255 196.092 185.221 196.058C185.187 196.024 185.146 195.997 185.102 195.979C185.058 195.961 185.01 195.951 184.962 195.951H116.105C116.057 195.951 116.009 195.961 115.965 195.979C115.92 195.997 115.88 196.024 115.846 196.058C115.812 196.092 115.785 196.133 115.766 196.177C115.748 196.221 115.739 196.269 115.739 196.317V198.162H110.245V196.317C110.245 196.269 110.235 196.221 110.217 196.177C110.198 196.133 110.171 196.092 110.137 196.058C110.103 196.024 110.063 195.997 110.019 195.979C109.974 195.961 109.926 195.951 109.878 195.951H101.088C101.04 195.951 100.992 195.961 100.948 195.979C100.903 195.997 100.863 196.024 100.829 196.058C100.795 196.092 100.768 196.133 100.75 196.177C100.731 196.221 100.722 196.269 100.722 196.317V198.162H95.2279V196.317C95.2279 196.269 95.2184 196.221 95.2 196.177C95.1816 196.133 95.1546 196.092 95.1206 196.058C95.0866 196.024 95.0462 195.997 95.0018 195.979C94.9574 195.961 94.9097 195.951 94.8616 195.951H86.0714C86.0233 195.951 85.9756 195.961 85.9312 195.979C85.8868 195.997 85.8464 196.024 85.8124 196.058C85.7784 196.092 85.7514 196.133 85.733 196.177C85.7146 196.221 85.7051 196.269 85.7051 196.317V198.162H80.2112V196.317C80.2112 196.269 80.2017 196.221 80.1833 196.177C80.1649 196.133 80.1379 196.092 80.1039 196.058C80.0699 196.024 80.0295 195.997 79.9851 195.979C79.9407 195.961 79.893 195.951 79.8449 195.951H71.0547C71.0066 195.951 70.9589 195.961 70.9145 195.979C70.8701 195.997 70.8297 196.024 70.7957 196.058C70.7617 196.092 70.7347 196.133 70.7163 196.177C70.6979 196.221 70.6884 196.269 70.6884 196.317V198.162H65.1945V196.317C65.1945 196.269 65.185 196.221 65.1666 196.177C65.1482 196.133 65.1212 196.092 65.0872 196.058C65.0532 196.024 65.0128 195.997 64.9684 195.979C64.924 195.961 64.8763 195.951 64.8282 195.951H56.038C55.9899 195.951 55.9422 195.961 55.8978 195.979C55.8534 195.997 55.813 196.024 55.779 196.058C55.7449 196.092 55.718 196.133 55.6996 196.177C55.6812 196.221 55.6717 196.269 55.6717 196.317V198.162H50.1778V196.317C50.1778 196.269 50.1683 196.221 50.1499 196.177C50.1315 196.133 50.1045 196.092 50.0705 196.058C50.0365 196.024 49.9961 195.997 49.9517 195.979C49.9072 195.961 49.8596 195.951 49.8115 195.951H41.0212C40.9731 195.951 40.9255 195.961 40.8811 195.979C40.8366 195.997 40.7963 196.024 40.7623 196.058C40.7282 196.092 40.7013 196.133 40.6829 196.177C40.6645 196.221 40.655 196.269 40.655 196.317V198.162H35.1611V196.317C35.1611 196.269 35.1516 196.221 35.1332 196.177C35.1148 196.133 35.0878 196.092 35.0538 196.058C35.0198 196.024 34.9794 195.997 34.935 195.979C34.8905 195.961 34.8429 195.951 34.7948 195.951H26.0045C25.9564 195.951 25.9088 195.961 25.8644 195.979C25.8199 195.997 25.7796 196.024 25.7456 196.058C25.7115 196.092 25.6846 196.133 25.6662 196.177C25.6478 196.221 25.6383 196.269 25.6383 196.317V198.162H8.79027C6.45895 198.162 4.22311 199.088 2.57461 200.734C0.926118 202.381 2.22105e-06 204.615 0 206.944V210.914C6.66316e-06 213.243 0.926125 215.477 2.57462 217.124C4.22311 218.771 6.45895 219.696 8.79027 219.696H301.067C303.398 219.696 305.634 218.771 307.282 217.124C308.931 215.477 309.857 213.243 309.857 210.914V206.944C309.857 204.615 308.931 202.381 307.282 200.734C305.634 199.088 303.398 198.162 301.067 198.162Z" fill="#212428"/>
<path d="M68.324 180.306C62.03 180.306 55.8773 178.441 50.644 174.948C45.4107 171.455 41.3319 166.49 38.9233 160.681C36.5146 154.872 35.8844 148.48 37.1123 142.313C38.3402 136.146 41.3711 130.481 45.8217 126.035C50.2722 121.589 55.9425 118.562 62.1156 117.335C68.2887 116.108 74.6873 116.738 80.5022 119.144C86.3171 121.55 91.2872 125.625 94.784 130.853C98.2808 136.081 100.147 142.227 100.147 148.515C100.138 156.944 96.7818 165.024 90.8158 170.984C84.8499 176.944 76.7611 180.296 68.324 180.306ZM68.324 117.561C62.1956 117.561 56.2049 119.376 51.1093 122.777C46.0137 126.179 42.0422 131.013 39.697 136.669C37.3517 142.325 36.7381 148.549 37.9337 154.554C39.1293 160.558 42.0804 166.074 46.4138 170.403C50.7472 174.732 56.2684 177.68 62.279 178.874C68.2896 180.069 74.5198 179.456 80.1817 177.113C85.8436 174.77 90.6829 170.803 94.0877 165.712C97.4924 160.622 99.3097 154.637 99.3097 148.515C99.3004 140.308 96.0329 132.44 90.2239 126.637C84.415 120.834 76.5391 117.57 68.324 117.561Z" fill="#3F3D56"/>
<path d="M352.22 45.6128H245.445V46.4494H352.22V45.6128Z" fill="#3F3D56"/>
<path d="M477 266.476H170.074V267.312H477V266.476Z" fill="#3F3D56"/>
<path d="M187.451 304.959H80.6766V305.796H187.451V304.959Z" fill="#3F3D56"/>
<path d="M208.944 262.065H197.22V273.778H208.944V262.065Z" fill="#3887FE"/>
<path d="M216.062 267.085H201.826V252.863H216.062V267.085ZM202.445 266.467H215.443V253.481H202.445V266.467Z" fill="#3F3D56"/>
<path d="M345.03 41.2026H333.306V52.9151H345.03V41.2026Z" fill="#3887FE"/>
<path d="M352.148 46.2222H337.912V32H352.148V46.2222ZM338.531 45.6039H351.529V32.6184H338.531V45.6039Z" fill="#3F3D56"/>
<path d="M463.111 262.065H451.386V273.778H463.111V262.065Z" fill="#3887FE"/>
<path d="M470.229 267.085H455.992V252.863H470.229V267.085ZM456.611 266.467H469.61V253.481H456.611V266.467Z" fill="#3F3D56"/>
<path d="M442.665 129.028H441.669V101.771C441.669 99.6994 441.26 97.6479 440.467 95.7339C439.673 93.8199 438.51 92.0808 437.043 90.6159C435.577 89.151 433.836 87.989 431.92 87.1962C430.004 86.4034 427.951 85.9954 425.877 85.9954H368.07C365.997 85.9954 363.943 86.4034 362.027 87.1962C360.111 87.989 358.37 89.151 356.904 90.6159C355.438 92.0808 354.274 93.8199 353.481 95.7339C352.687 97.6479 352.279 99.6994 352.279 101.771V251.306C352.279 253.377 352.687 255.429 353.481 257.343C354.274 259.257 355.438 260.996 356.904 262.461C358.37 263.926 360.111 265.088 362.027 265.881C363.943 266.673 365.997 267.081 368.07 267.081H425.877C427.951 267.081 430.004 266.673 431.92 265.881C433.836 265.088 435.577 263.926 437.043 262.461C438.51 260.996 439.673 259.257 440.467 257.343C441.26 255.429 441.669 253.377 441.669 251.306V148.43H442.665V129.028Z" fill="#212428"/>
<path d="M438.306 102.698V252.015C438.306 255.14 437.064 258.136 434.853 260.346C432.642 262.556 429.642 263.798 426.514 263.798H368.429C365.301 263.798 362.302 262.556 360.09 260.346C357.879 258.136 356.637 255.14 356.638 252.015V102.698C356.638 99.5743 357.88 96.5784 360.092 94.3694C362.303 92.1604 365.302 90.9193 368.429 90.9189H375.476C375.129 91.7688 374.997 92.6908 375.091 93.6037C375.185 94.5166 375.502 95.3925 376.014 96.1541C376.527 96.9157 377.219 97.5397 378.03 97.9712C378.841 98.4026 379.745 98.6283 380.664 98.6282H413.781C414.7 98.6283 415.604 98.4027 416.415 97.9712C417.226 97.5398 417.918 96.9157 418.431 96.1541C418.943 95.3925 419.26 94.5166 419.354 93.6037C419.448 92.6908 419.316 91.7688 418.969 90.9189H426.515C429.642 90.9193 432.641 92.1604 434.852 94.3694C437.063 96.5784 438.305 99.5743 438.306 102.698Z" fill="#3887FE"/>
<path d="M406.123 189.372H388.82V194.495H406.123V189.372Z" fill="#212428"/>
<path d="M427.042 149.49H367.901V151.686H427.042V149.49Z" fill="#212428"/>
<path d="M427.042 156.442H367.901V158.637H427.042V156.442Z" fill="#212428"/>
<path d="M427.042 163.394H367.901V165.589H427.042V163.394Z" fill="#212428"/>
<path d="M427.042 170.346H367.901V172.541H427.042V170.346Z" fill="#212428"/>
<path d="M427.042 177.298H367.901V179.493H427.042V177.298Z" fill="#212428"/>
<path d="M399.538 120.336H389.282V130.581H399.538V120.336Z" fill="#F2F2F2"/>
<path d="M393.208 122.898V135.338H405.661V122.898H393.208ZM405.121 134.799H393.748V123.438H405.121V134.799Z" fill="#3F3D56"/>
<path opacity="0.1" d="M438.306 236.069V252.015C438.306 255.14 437.064 258.137 434.853 260.346C432.642 262.556 429.642 263.798 426.514 263.799H368.429C365.301 263.798 362.302 262.556 360.09 260.346C357.879 258.137 356.637 255.14 356.638 252.015V171.614L405.574 210.235L406.411 210.896L415.515 218.078L416.365 218.752L438.306 236.069Z" fill="black"/>
<path d="M392.447 258.959C402.592 258.959 410.816 250.744 410.816 240.609C410.816 230.475 402.592 222.26 392.447 222.26C382.302 222.26 374.078 230.475 374.078 240.609C374.078 250.744 382.302 258.959 392.447 258.959Z" fill="#F2F2F2"/>
<path d="M134.064 305.796C126.859 305.796 119.816 303.661 113.825 299.663C107.834 295.664 103.165 289.98 100.408 283.33C97.6506 276.681 96.9291 269.363 98.3348 262.304C99.7404 255.245 103.21 248.76 108.305 243.671C113.399 238.581 119.89 235.115 126.957 233.711C134.023 232.307 141.348 233.027 148.005 235.782C154.661 238.536 160.351 243.201 164.354 249.185C168.357 255.17 170.493 262.206 170.493 269.404C170.482 279.052 166.641 288.302 159.811 295.125C152.982 301.947 143.722 305.785 134.064 305.796ZM134.064 233.848C127.025 233.848 120.143 235.933 114.29 239.84C108.437 243.747 103.875 249.3 101.181 255.797C98.4876 262.294 97.7828 269.443 99.1561 276.34C100.529 283.237 103.919 289.573 108.897 294.545C113.874 299.518 120.216 302.904 127.12 304.276C134.024 305.648 141.181 304.944 147.684 302.253C154.188 299.562 159.746 295.004 163.657 289.157C167.568 283.31 169.656 276.436 169.656 269.404C169.645 259.977 165.892 250.939 159.219 244.274C152.547 237.608 143.5 233.859 134.064 233.848Z" fill="#3F3D56"/>
<path d="M397.861 254.763C393.306 254.763 388.853 253.414 385.066 250.886C381.279 248.358 378.327 244.765 376.584 240.561C374.841 236.357 374.385 231.731 375.274 227.268C376.162 222.805 378.356 218.706 381.576 215.488C384.797 212.271 388.901 210.08 393.368 209.192C397.835 208.304 402.466 208.76 406.674 210.501C410.882 212.243 414.479 215.191 417.01 218.975C419.54 222.758 420.891 227.206 420.891 231.757C420.884 237.856 418.455 243.704 414.138 248.017C409.82 252.33 403.967 254.756 397.861 254.763ZM397.861 209.587C393.472 209.587 389.181 210.887 385.531 213.323C381.882 215.759 379.037 219.221 377.358 223.272C375.678 227.323 375.239 231.781 376.095 236.082C376.951 240.382 379.065 244.333 382.169 247.433C385.272 250.534 389.227 252.645 393.531 253.5C397.836 254.356 402.299 253.917 406.354 252.239C410.409 250.561 413.875 247.719 416.313 244.074C418.752 240.428 420.053 236.141 420.053 231.757C420.047 225.879 417.707 220.244 413.546 216.087C409.386 211.931 403.745 209.593 397.861 209.587Z" fill="#3F3D56"/>
</svg>
