<svg width="354" height="344" viewBox="0 0 354 344" fill="none" xmlns="http://www.w3.org/2000/svg">
<path d="M333.004 94.9453C329.691 88.9673 326.014 83.1978 321.995 77.6691C319.179 73.7903 316.204 70.041 313.069 66.421H313.061C307.389 59.8679 301.219 53.7616 294.608 48.1565C293.255 47.0074 291.884 45.8818 290.494 44.7798C277.951 34.8005 264.04 26.6723 249.188 20.6436L249.32 42.3468L250.741 289.751H127.561L120.634 42.8136L121.15 21.457C60.7586 46.8562 18.355 106.574 18.355 176.2C18.3438 190.571 20.1772 204.884 23.8105 218.788C25.3451 224.666 27.203 230.454 29.3757 236.127C30.1601 238.186 30.9876 240.227 31.8582 242.249C32.2779 243.234 32.7054 244.21 33.1486 245.183C33.7172 246.454 34.3095 247.72 34.9174 248.971C35.388 249.956 35.8717 250.934 36.3685 251.905C37.0078 253.18 37.668 254.444 38.3491 255.698C38.8746 256.682 39.4158 257.659 39.9649 258.631C48.8232 274.3 60.1349 288.448 73.47 300.537C77.2704 303.985 81.225 307.253 85.3339 310.342C114.407 332.188 149.789 344 186.155 344C222.521 344 257.903 332.188 286.976 310.342C289.212 308.663 291.402 306.929 293.546 305.138C294.969 303.953 296.369 302.746 297.746 301.518C298.111 301.192 298.475 300.867 298.836 300.537C311.131 289.392 321.711 276.492 330.235 262.255C333.366 257.035 336.204 251.646 338.738 246.112C339.409 244.653 340.058 243.181 340.687 241.696C343.582 234.887 346.016 227.892 347.974 220.757C348.276 219.655 348.568 218.549 348.849 217.439V217.435C348.896 217.243 348.947 217.047 348.994 216.855C349.284 215.686 349.563 214.509 349.829 213.333V213.329C350.692 209.536 351.42 205.698 352.014 201.814C352.088 201.316 352.163 200.818 352.233 200.32C352.261 200.14 352.288 199.959 352.308 199.779V199.775C352.732 196.774 353.075 193.752 353.339 190.707C353.747 185.926 353.953 181.091 353.955 176.2C354 147.774 346.788 119.806 333.004 94.9453Z" fill="#CBEAF6"/>
<path d="M316.525 277.491C326.457 264.071 330.277 245.169 322.551 230.369C315.305 247.016 302.405 260.564 286.132 268.615C279.845 271.697 272.531 274.471 269.621 280.84C267.811 284.802 268.155 289.482 269.611 293.588C271.067 297.694 273.543 301.348 275.992 304.951L276.121 306.031C291.544 299.637 306.593 290.911 316.525 277.491Z" fill="#E6E6E6"/>
<path d="M322.221 230.487C321.776 244.299 316.991 257.62 308.544 268.557C306.768 270.944 304.626 273.036 302.198 274.756C299.779 276.355 296.975 277.276 294.079 277.426C291.382 277.619 288.6 277.504 285.997 278.35C284.67 278.803 283.455 279.53 282.429 280.486C281.404 281.441 280.593 282.603 280.048 283.894C278.606 287.076 278.394 290.586 278.306 294.025C278.208 297.844 278.166 301.813 276.365 305.284C276.147 305.705 276.812 306.019 277.03 305.599C280.164 299.559 278.129 292.495 279.997 286.146C280.868 283.183 282.638 280.465 285.596 279.277C288.183 278.239 291.051 278.355 293.784 278.183C296.612 278.079 299.37 277.284 301.82 275.868C304.327 274.277 306.546 272.271 308.381 269.936C312.595 264.745 315.967 258.923 318.373 252.685C321.159 245.58 322.708 238.051 322.955 230.423C322.97 229.951 322.236 230.018 322.221 230.487Z" fill="white"/>
<path d="M311.471 265.195C313.499 266.363 315.875 266.773 318.176 266.35C320.478 265.928 322.554 264.701 324.034 262.889C324.333 262.521 323.775 262.041 323.477 262.409C322.101 264.099 320.167 265.241 318.023 265.63C315.88 266.019 313.667 265.629 311.786 264.53C311.377 264.292 311.064 264.958 311.471 265.195Z" fill="white"/>
<path d="M295.46 277.508C294.176 272.9 294.677 267.978 296.861 263.723C297.078 263.301 296.413 262.987 296.196 263.408C293.931 267.84 293.421 272.964 294.767 277.755C294.896 278.212 295.588 277.962 295.46 277.508Z" fill="white"/>
<path d="M320.183 245.614C319.305 245.326 318.512 244.823 317.875 244.153C317.238 243.482 316.778 242.663 316.536 241.771C316.414 241.313 315.721 241.564 315.843 242.019C316.116 243.004 316.625 243.907 317.326 244.649C318.028 245.392 318.901 245.952 319.869 246.279C319.957 246.318 320.057 246.321 320.148 246.289C320.239 246.256 320.314 246.19 320.359 246.104C320.4 246.016 320.405 245.915 320.372 245.823C320.339 245.731 320.271 245.656 320.183 245.614Z" fill="white"/>
<path d="M267.264 218.591C267.333 218.879 267.401 219.167 267.466 219.46C268.367 223.339 268.952 227.285 269.214 231.259C269.239 231.566 269.26 231.878 269.276 232.185C269.806 241.766 268.552 251.362 265.578 260.485C264.391 264.114 262.931 267.648 261.208 271.056C258.828 275.761 255.874 280.675 255.208 285.742C255.132 286.27 255.09 286.803 255.08 287.336L274.794 306.105C274.86 306.125 274.922 306.15 274.989 306.17L275.741 306.956C275.843 306.786 275.944 306.608 276.045 306.438C276.104 306.34 276.159 306.238 276.218 306.14C276.256 306.073 276.293 306.006 276.332 305.948C276.344 305.926 276.357 305.904 276.365 305.886C276.403 305.828 276.433 305.77 276.466 305.716C277.035 304.723 277.598 303.724 278.154 302.719C278.159 302.714 278.159 302.714 278.159 302.706C282.38 295.038 285.999 286.95 288.275 278.57C288.344 278.318 288.417 278.062 288.476 277.801C289.481 274.018 290.175 270.159 290.552 266.263C290.751 264.129 290.842 261.986 290.824 259.843C290.769 254.305 289.842 248.811 288.079 243.561C284.563 233.096 277.739 223.873 268.011 218.959C267.762 218.833 267.518 218.712 267.264 218.591Z" fill="#E6E6E6"/>
<path d="M267.07 218.883C275.031 230.179 279.23 243.696 279.07 257.514C279.089 260.489 278.638 263.449 277.735 266.284C276.766 269.017 275.083 271.441 272.861 273.304C270.823 275.082 268.533 276.666 266.963 278.908C266.177 280.068 265.645 281.381 265.401 282.761C265.158 284.142 265.209 285.557 265.551 286.916C266.316 290.325 268.26 293.255 270.26 296.055C272.481 299.163 274.838 302.356 275.489 306.213C275.568 306.68 276.289 306.53 276.21 306.064C275.076 299.354 269.198 294.939 266.867 288.745C265.779 285.855 265.555 282.619 267.202 279.89C268.642 277.504 271.002 275.869 273.081 274.086C275.276 272.301 277 270.005 278.103 267.4C279.147 264.62 279.711 261.683 279.77 258.713C280.01 252.031 279.197 245.353 277.362 238.923C275.308 231.573 272.013 224.629 267.617 218.39C267.345 218.004 266.8 218.499 267.07 218.883Z" fill="white"/>
<path d="M279.384 253.068C281.706 252.78 283.85 251.676 285.433 249.953C287.016 248.23 287.935 246 288.026 243.662C288.043 243.189 287.309 243.141 287.292 243.615C287.211 245.792 286.354 247.869 284.877 249.47C283.399 251.071 281.398 252.092 279.234 252.347C278.764 252.403 278.916 253.123 279.384 253.068Z" fill="white"/>
<path d="M274.012 272.538C270.214 269.632 267.65 265.401 266.832 260.688C266.751 260.221 266.031 260.371 266.111 260.837C266.971 265.74 269.649 270.138 273.608 273.153C273.986 273.44 274.388 272.824 274.012 272.538Z" fill="white"/>
<path d="M274.551 232.188C273.675 232.486 272.74 232.563 271.828 232.411C270.915 232.258 270.055 231.882 269.325 231.315C268.951 231.023 268.549 231.64 268.921 231.93C269.731 232.553 270.681 232.967 271.689 233.138C272.696 233.308 273.73 233.23 274.7 232.908C274.794 232.886 274.876 232.828 274.929 232.747C274.982 232.667 275.002 232.569 274.985 232.473C274.965 232.378 274.908 232.295 274.827 232.241C274.745 232.188 274.646 232.169 274.551 232.188Z" fill="white"/>
<path d="M7.83355 202.33C-0.974935 188.148 -3.24582 168.997 5.65724 154.874C11.526 172.055 23.2828 186.606 38.8476 195.953C44.8633 199.537 51.9273 202.895 54.3102 209.479C55.7929 213.576 55.069 218.212 53.2845 222.186C51.4998 226.161 48.7353 229.601 46.0009 232.993L45.7845 234.059C30.9328 226.433 16.642 216.513 7.83355 202.33Z" fill="#E6E6E6"/>
<path d="M5.97614 155.019C5.29722 168.821 8.98454 182.487 16.5144 194.074C18.0911 196.597 20.0557 198.856 22.3358 200.768C24.6172 202.558 27.3363 203.705 30.2107 204.089C32.8836 204.501 35.6653 204.612 38.1916 205.667C39.4767 206.226 40.6291 207.05 41.5733 208.086C42.5175 209.121 43.2321 210.345 43.6703 211.676C44.8484 214.964 44.7747 218.48 44.5832 221.915C44.3705 225.73 44.0891 229.688 45.6024 233.295C45.7858 233.732 45.097 233.991 44.9139 233.555C42.281 227.28 44.8834 220.405 43.5379 213.925C42.91 210.901 41.3671 208.048 38.5154 206.624C36.0218 205.379 33.1533 205.261 30.4433 204.867C27.6338 204.534 24.9486 203.518 22.6224 201.907C20.2523 200.118 18.204 197.938 16.5651 195.462C12.7865 189.945 9.89886 183.869 8.00783 177.456C5.80902 170.148 4.87651 162.518 5.25062 154.896C5.27397 154.424 5.99934 154.55 5.97614 155.019Z" fill="white"/>
<path d="M13.8701 190.486C11.7545 191.485 9.35252 191.7 7.09312 191.092C4.83372 190.484 2.86404 189.092 1.53584 187.166C1.26843 186.775 1.86296 186.342 2.13073 186.733C3.36424 188.529 5.19914 189.825 7.30424 190.387C9.40935 190.949 11.646 190.74 13.6105 189.797C14.0377 189.593 14.2948 190.283 13.8701 190.486Z" fill="white"/>
<path d="M28.8278 204.058C30.4815 199.57 30.3828 194.624 28.5514 190.205C28.3696 189.768 29.0583 189.509 29.2399 189.946C31.1371 194.547 31.2294 199.695 29.4983 204.362C29.333 204.806 28.6634 204.501 28.8278 204.058Z" fill="white"/>
<path d="M6.77811 170.261C7.67726 170.045 8.50866 169.609 9.19764 168.992C9.88662 168.375 10.4116 167.597 10.7254 166.727C10.885 166.28 11.5544 166.587 11.3959 167.03C11.0446 167.99 10.4638 168.849 9.70411 169.532C8.94441 170.215 8.02894 170.702 7.03772 170.95C6.94625 170.981 6.84633 170.976 6.75827 170.936C6.67022 170.896 6.60063 170.824 6.56366 170.735C6.52974 170.644 6.53324 170.543 6.57339 170.454C6.61355 170.365 6.68712 170.296 6.77811 170.261Z" fill="white"/>
<path d="M61.7182 147.627C61.6265 147.909 61.5348 148.191 61.4467 148.477C60.2332 152.271 59.3299 156.156 58.7457 160.096C58.6957 160.4 58.6496 160.708 58.6084 161.013C57.3021 170.519 57.772 180.186 59.9943 189.52C60.882 193.234 62.051 196.875 63.4911 200.411C65.4802 205.295 68.0254 210.432 68.2776 215.537C68.3099 216.069 68.3092 216.603 68.2755 217.135L47.1017 234.24C47.034 234.255 46.9701 234.275 46.9022 234.29L46.088 235.011C46.001 234.834 45.9146 234.648 45.8275 234.471C45.7767 234.369 45.7305 234.262 45.6796 234.16C45.6471 234.09 45.6149 234.02 45.5816 233.959C45.5708 233.936 45.5601 233.913 45.5531 233.895C45.5199 233.834 45.4954 233.773 45.4661 233.717C44.9801 232.681 44.5005 231.639 44.0274 230.592C44.0235 230.588 44.0235 230.588 44.0243 230.579C40.4396 222.593 37.4901 214.238 35.9024 205.701C35.8548 205.444 35.8029 205.183 35.7649 204.918C35.0707 201.066 34.6924 197.164 34.6339 193.25C34.6087 191.107 34.6921 188.964 34.8837 186.829C35.3893 181.314 36.7591 175.913 38.9431 170.824C43.2982 160.679 50.8493 152.041 60.9439 147.934C61.2022 147.829 61.456 147.727 61.7182 147.627Z" fill="#E6E6E6"/>
<path d="M61.8877 147.935C53.0356 158.546 47.7522 171.678 46.7879 185.463C46.5276 188.427 46.7362 191.413 47.4059 194.312C48.1495 197.115 49.6302 199.668 51.694 201.705C53.5802 203.643 55.734 205.408 57.1162 207.77C57.8058 208.99 58.2296 210.342 58.36 211.738C58.4904 213.133 58.3244 214.54 57.8728 215.867C56.8337 219.202 54.6582 221.964 52.4369 224.592C49.9705 227.51 47.3625 230.501 46.3994 234.292C46.2827 234.751 45.5768 234.543 45.6934 234.084C47.3691 227.489 53.5859 223.567 56.4133 217.583C57.7326 214.79 58.2183 211.583 56.7986 208.729C55.5572 206.234 53.3377 204.413 51.411 202.467C49.3685 200.509 47.8365 198.081 46.9488 195.395C46.1336 192.539 45.8104 189.566 45.9928 186.602C46.2972 179.922 47.6499 173.332 50.0014 167.072C52.6455 159.914 56.4948 153.26 61.3826 147.4C61.6853 147.037 62.1883 147.575 61.8877 147.935Z" fill="white"/>
<path d="M46.8371 181.006C44.5462 180.53 42.499 179.255 41.0611 177.409C39.6232 175.564 38.8883 173.267 38.9875 170.929C38.9924 170.834 39.0342 170.744 39.1039 170.679C39.1736 170.614 39.2659 170.578 39.3613 170.58C39.4568 170.581 39.5478 170.62 39.6154 170.687C39.6829 170.755 39.7217 170.846 39.7234 170.941C39.627 173.118 40.3118 175.257 41.6543 176.973C42.9968 178.69 44.9085 179.869 47.0444 180.3C47.5084 180.394 47.2985 181.099 46.8371 181.006Z" fill="white"/>
<path d="M50.6082 200.848C54.6307 198.261 57.53 194.252 58.728 189.621C58.8463 189.162 59.5522 189.37 59.434 189.828C58.1784 194.645 55.1527 198.81 50.9609 201.494C50.5612 201.75 50.2107 201.103 50.6082 200.848Z" fill="white"/>
<path d="M53.3511 160.588C54.1992 160.956 55.1255 161.109 56.047 161.031C56.9685 160.953 57.8563 160.648 58.6306 160.142C59.0269 159.882 59.377 160.529 58.9833 160.788C58.1252 161.343 57.1444 161.679 56.1264 161.767C55.1085 161.855 54.0845 161.693 53.1439 161.294C53.0521 161.263 52.9752 161.199 52.9289 161.115C52.8825 161.03 52.8702 160.931 52.8945 160.837C52.9224 160.744 52.986 160.665 53.0715 160.618C53.157 160.572 53.2575 160.561 53.3511 160.588Z" fill="white"/>
<path d="M171.347 57.5581C184.222 57.5581 194.66 47.1206 194.66 34.2453C194.66 21.3701 184.222 10.9326 171.347 10.9326C158.472 10.9326 148.034 21.3701 148.034 34.2453C148.034 47.1206 158.472 57.5581 171.347 57.5581Z" fill="#FF6584"/>
<path d="M242.725 33.0289C240.625 30.8098 238.407 28.7046 236.082 26.7224C231.54 22.8711 226.512 19.5963 220.908 17.5333C218.798 16.7541 216.617 16.1801 214.397 15.8194C214.131 15.7763 213.868 15.7331 213.601 15.6978C213.582 15.6959 213.562 15.6959 213.542 15.6978C213.501 15.6862 213.459 15.6783 213.417 15.6743C212.872 15.6037 212.327 15.5488 211.777 15.5096C208.82 15.313 205.851 15.5803 202.977 16.3018C201.309 16.7226 199.682 17.2895 198.113 17.9961C196.542 18.7652 195.019 19.6283 193.552 20.5806C192.764 21.0592 191.953 21.4977 191.121 21.8945C188.691 23.0456 186.119 23.8686 183.473 24.3418C181.686 24.6624 179.876 24.8408 178.061 24.8752C176.484 24.9066 174.998 24.9614 173.503 25.5301C171.909 26.1293 170.476 27.0933 169.32 28.345C168.165 29.5966 167.318 31.1013 166.848 32.7387C166.811 32.8841 166.821 33.0375 166.878 33.1766C166.934 33.3156 167.034 33.4329 167.161 33.5113C167.565 33.8015 167.958 34.1309 168.385 34.3898C168.762 34.562 169.165 34.6719 169.577 34.7153C170.252 34.8565 170.928 34.9938 171.605 35.1271C174.095 35.6213 176.596 36.0592 179.108 36.441C184.159 37.2058 189.239 37.7444 194.348 38.0568C194.38 38.0614 194.411 38.064 194.442 38.0647C200.214 38.413 206 38.4693 211.777 38.2333C212.652 38.198 213.523 38.1549 214.397 38.1039C218.041 37.8999 221.675 37.5783 225.3 37.1391C228.654 36.7312 231.994 36.2253 235.321 35.6213C237.698 35.1899 240.065 34.7088 242.423 34.178C242.538 34.1441 242.642 34.0813 242.725 33.9955C242.808 33.9098 242.868 33.804 242.898 33.6885C242.929 33.573 242.929 33.4516 242.898 33.336C242.868 33.2205 242.809 33.1147 242.725 33.0289Z" fill="#E6E6E6"/>
<path d="M194.27 64.1141C190.895 60.5037 187.176 57.2305 183.167 54.3407C181.837 53.4072 180.469 52.5287 179.061 51.7247C177.334 50.7283 175.542 49.8516 173.695 49.1009C173.284 48.9323 172.868 48.7715 172.452 48.6186C170.09 47.7438 167.64 47.1283 165.146 46.7831C165.126 46.7792 165.106 46.7831 165.087 46.7792C165.048 46.7713 165.004 46.7635 164.965 46.7556C163.756 46.5988 162.537 46.5241 161.318 46.5321C160.443 46.5321 159.565 46.5792 158.694 46.6654C157.287 46.804 155.893 47.0452 154.521 47.3871C153.843 47.5557 153.168 47.7518 152.505 47.9753C151.538 48.2935 150.589 48.6627 149.662 49.0813C149.646 49.0892 149.634 49.0931 149.619 49.1009C148.062 49.8627 146.553 50.7193 145.101 51.6659C145.069 51.6855 145.034 51.7051 145.003 51.7247C143.353 52.7114 141.608 53.5287 139.794 54.1642C138.237 54.7087 136.64 55.1309 135.017 55.427C133.23 55.7485 131.42 55.9255 129.605 55.9565C128.028 55.9879 126.542 56.0428 125.052 56.6154C123.456 57.2145 122.023 58.1783 120.867 59.4299C119.711 60.6816 118.863 62.1863 118.392 63.8239C118.356 63.9693 118.367 64.1225 118.423 64.2614C118.479 64.4003 118.579 64.5176 118.706 64.5965C119.11 64.8867 119.506 65.2123 119.93 65.4711C120.306 65.6446 120.709 65.7546 121.122 65.7966C121.796 65.9378 122.471 66.079 123.149 66.2123C125.64 66.7065 128.142 67.1432 130.656 67.5223C134.103 68.0439 137.565 68.4609 141.041 68.7734C142.689 68.9263 144.337 69.0518 145.987 69.1499C150.219 69.4048 154.454 69.5041 158.694 69.4479C159.569 69.4362 160.443 69.4166 161.318 69.3891C166.51 69.2362 171.687 68.8466 176.849 68.2204C182.602 67.5244 188.315 66.5361 193.968 65.2593C194.082 65.2258 194.186 65.1633 194.269 65.078C194.352 64.9926 194.412 64.8872 194.442 64.772C194.473 64.6568 194.473 64.5357 194.442 64.4204C194.412 64.3051 194.353 64.1996 194.27 64.1141Z" fill="#E6E6E6"/>
<path d="M136.161 1.54783L156.699 285.362L115.623 289.008V5.15875C120.518 1.33546 127.544 0.737301 136.161 1.54783Z" fill="#CCCCCC"/>
<path d="M237.54 1.54783L217.002 285.362L258.078 289.008V5.15875C253.183 1.33546 246.157 0.737301 237.54 1.54783Z" fill="#CCCCCC"/>
<path d="M259.044 5.28258C257.77 2.15747 255.06 0 251.926 0H121.337C116.98 0 113.439 4.18069 113.439 9.32437V291.413C113.401 294.022 114.376 296.545 116.16 298.45C117.094 299.43 118.276 300.139 119.58 300.501C120.153 300.659 120.744 300.739 121.337 300.737H251.926C252.52 300.739 253.111 300.659 253.683 300.501C257.197 299.556 259.825 295.843 259.825 291.413V9.32438C259.829 7.93932 259.563 6.56671 259.044 5.28258ZM257.205 291.413C257.205 294.848 254.836 297.644 251.926 297.644H121.337C118.925 297.644 116.882 295.723 116.258 293.107C116.125 292.552 116.058 291.983 116.058 291.413V9.32438C116.058 5.88909 118.427 3.09734 121.337 3.09734H251.926C252.462 3.09692 252.993 3.19257 253.495 3.37975C255.64 4.16682 257.205 6.53264 257.205 9.32438V291.413Z" fill="#CCCCCC"/>
<path d="M258.515 85.7451H114.749V88.367H258.515V85.7451Z" fill="#CCCCCC"/>
<path d="M258.515 31.6223H114.749V34.2442H258.515V31.6223Z" fill="#CCCCCC"/>
<path d="M258.515 129.443H114.749V132.065H258.515V129.443Z" fill="#CCCCCC"/>
<path d="M161.403 1.17651H158.781V166.586H161.403V1.17651Z" fill="#CCCCCC"/>
<path d="M214.483 1.17651H211.862V166.586H214.483V1.17651Z" fill="#CCCCCC"/>
<path d="M274.901 284.351H102.732C99.604 284.355 96.6055 285.599 94.3939 287.81C92.1822 290.022 90.9381 293.021 90.9345 296.148C90.9329 297.652 91.2219 299.142 91.7855 300.537C92.6614 302.724 94.172 304.599 96.1229 305.92C98.0738 307.241 100.376 307.948 102.732 307.949H274.901C276.96 307.949 278.984 307.409 280.77 306.384C282.556 305.359 284.043 303.884 285.082 302.106C285.378 301.603 285.635 301.079 285.851 300.537C286.414 299.142 286.703 297.652 286.702 296.148C286.697 293.02 285.452 290.022 283.24 287.81C281.028 285.599 278.029 284.355 274.901 284.351Z" fill="#CCCCCC"/>
<path d="M258.515 160.468H115.623V169.208H258.515V160.468Z" fill="#CCCCCC"/>
<path d="M185.758 157.846H188.38C189.655 157.846 190.877 158.353 191.779 159.254C192.68 160.156 193.187 161.378 193.187 162.653H180.951C180.951 162.022 181.076 161.397 181.317 160.814C181.559 160.231 181.913 159.701 182.359 159.254C182.806 158.808 183.335 158.454 183.919 158.212C184.502 157.971 185.127 157.846 185.758 157.846Z" fill="#CCCCCC"/>
<path d="M189.59 185.116C204.546 185.116 216.67 172.992 216.67 158.036C216.67 143.08 204.546 130.956 189.59 130.956C174.634 130.956 162.51 143.08 162.51 158.036C162.51 172.992 174.634 185.116 189.59 185.116Z" fill="#FFB8B8"/>
<path d="M159.381 131.985C159.586 128.875 161.642 125.693 168.176 124.03C168.176 124.03 179.39 109.691 194.627 117.21C194.627 117.21 202.014 115.94 207.492 123.604C207.492 123.604 212.923 120.401 215.214 126.078C215.214 126.078 221.584 137.659 219.239 149.471C216.894 161.283 215.694 162.757 215.694 162.757C215.694 162.757 218.683 138.324 201.467 140.018C184.251 141.712 170.39 135.658 166.492 148.914C163.254 159.921 163.662 165.637 163.662 165.637C163.662 165.637 152.836 154.657 156.517 146.011C158.4 141.588 159.065 136.781 159.381 131.985Z" fill="#2F2E41"/>
<path d="M115.948 306.028H265.736C264.735 294.602 264.08 250.926 264.08 248.052C264.08 235.373 253.706 221.537 253.706 221.537L249.992 219.485L218.981 209.809L210.956 199.385C210.116 198.29 209.033 197.405 207.793 196.799C206.552 196.194 205.189 195.884 203.809 195.895L178.457 196.085C176.226 196.102 174.082 196.952 172.445 198.467L156.747 213.031L133.722 224.026L133.683 223.987L133.442 224.166L130.025 226.626L127.827 228.215C127.827 228.215 122.061 235.133 117.453 255.881C116.759 259.002 116.273 299.4 115.948 306.028Z" fill="#3887FE"/>
<path d="M300.405 300.537C300.044 300.867 299.68 301.192 299.315 301.518C297.934 302.745 296.534 303.952 295.114 305.138C292.969 306.926 290.779 308.661 288.545 310.342H86.9027C82.7964 307.259 78.8418 303.991 75.0388 300.537H300.405Z" fill="#CCCCCC"/>
<path d="M226.492 302.891H152.368L153.936 295.439H224.923L226.492 302.891Z" fill="#2F2E41"/>
<path d="M293.553 270.73H274.265C273.83 270.729 273.4 270.823 273.005 271.006C272.61 271.189 272.259 271.457 271.979 271.789C271.71 271.737 271.437 271.711 271.163 271.711C270.562 271.71 269.967 271.828 269.411 272.058C268.855 272.288 268.351 272.624 267.925 273.049C267.5 273.474 267.163 273.979 266.932 274.534C266.702 275.089 266.584 275.685 266.584 276.286C266.584 276.887 266.702 277.482 266.932 278.038C267.163 278.593 267.5 279.098 267.925 279.522C268.351 279.947 268.855 280.284 269.411 280.514C269.967 280.744 270.562 280.861 271.163 280.861C271.854 280.861 272.535 280.702 273.155 280.398L273.477 284.351L274.756 299.976C274.816 300.171 274.898 300.36 274.999 300.537C275.257 301.012 275.639 301.408 276.103 301.684C276.568 301.96 277.098 302.106 277.638 302.106H290.181C290.721 302.105 291.252 301.959 291.717 301.683C292.182 301.407 292.564 301.012 292.824 300.537C292.922 300.359 293.002 300.171 293.063 299.976L296.436 274.633C296.575 274.182 296.606 273.704 296.526 273.239C296.447 272.774 296.26 272.334 295.979 271.954C295.699 271.575 295.333 271.266 294.912 271.054C294.491 270.841 294.025 270.73 293.553 270.73ZM271.163 279.555C270.297 279.554 269.466 279.209 268.854 278.596C268.242 277.983 267.898 277.152 267.898 276.286C267.898 275.42 268.242 274.589 268.854 273.976C269.466 273.363 270.297 273.018 271.163 273.017C271.222 273.017 271.277 273.033 271.336 273.037C271.207 273.563 271.223 274.115 271.383 274.633L272.763 279.12C272.277 279.402 271.725 279.552 271.163 279.555Z" fill="#1E1E1E"/>
<path d="M249.989 187.809H127.891C126.842 187.811 125.836 188.228 125.095 188.97C124.353 189.711 123.935 190.717 123.934 191.766V274.158C123.935 275.207 124.352 276.213 125.094 276.955C125.836 277.697 126.842 278.114 127.891 278.115H249.989C251.038 278.114 252.044 277.697 252.786 276.955C253.528 276.213 253.945 275.207 253.946 274.158V191.766C253.944 190.717 253.527 189.711 252.785 188.97C252.043 188.228 251.038 187.811 249.989 187.809Z" fill="#1E1E1E"/>
<path d="M202.69 253.827H174.127C173.722 253.827 173.335 253.988 173.05 254.274C172.764 254.561 172.604 254.948 172.605 255.352V300.474H204.216V255.352C204.216 255.152 204.176 254.953 204.1 254.768C204.023 254.583 203.911 254.415 203.769 254.273C203.627 254.132 203.459 254.019 203.274 253.943C203.089 253.866 202.89 253.827 202.69 253.827ZM188.504 279.464C187.611 279.46 186.756 279.104 186.124 278.472C185.492 277.84 185.136 276.985 185.132 276.092V270.887C185.133 269.993 185.488 269.136 186.121 268.505C186.753 267.873 187.611 267.518 188.504 267.518C189.398 267.518 190.256 267.873 190.888 268.505C191.52 269.136 191.876 269.993 191.877 270.887V276.092C191.873 276.985 191.516 277.84 190.885 278.472C190.253 279.104 189.398 279.46 188.504 279.464Z" fill="#2F2E41"/>
<path d="M172.507 299.031V303.385C172.507 303.61 172.597 303.826 172.757 303.986C172.916 304.145 173.132 304.235 173.358 304.236H203.463C203.688 304.235 203.904 304.145 204.063 303.985C204.223 303.826 204.313 303.61 204.314 303.385V299.031H172.507Z" fill="#3F3D56"/>
<path d="M247.392 273.297C248.457 273.297 249.32 272.434 249.32 271.369C249.32 270.305 248.457 269.442 247.392 269.442C246.328 269.442 245.465 270.305 245.465 271.369C245.465 272.434 246.328 273.297 247.392 273.297Z" fill="#2F2E41"/>
<path d="M143.304 268.573C143.216 268.573 143.128 268.591 143.046 268.625C142.964 268.658 142.89 268.708 142.827 268.771C142.764 268.833 142.715 268.908 142.681 268.99C142.647 269.071 142.63 269.159 142.63 269.248V272.719C142.63 272.897 142.701 273.068 142.828 273.195C142.954 273.321 143.125 273.392 143.304 273.392C143.483 273.392 143.654 273.321 143.78 273.195C143.907 273.068 143.978 272.897 143.979 272.719V269.248C143.979 269.159 143.961 269.071 143.927 268.99C143.893 268.908 143.844 268.833 143.781 268.771C143.718 268.708 143.644 268.658 143.562 268.625C143.48 268.591 143.393 268.573 143.304 268.573Z" fill="#2F2E41"/>
<path d="M146.967 268.573C146.879 268.573 146.791 268.591 146.709 268.625C146.627 268.658 146.553 268.708 146.49 268.771C146.428 268.833 146.378 268.908 146.344 268.99C146.31 269.071 146.293 269.159 146.293 269.248V272.719C146.293 272.898 146.364 273.069 146.49 273.196C146.617 273.322 146.788 273.393 146.967 273.393C147.146 273.393 147.318 273.322 147.444 273.196C147.571 273.069 147.642 272.898 147.642 272.719V269.248C147.642 269.159 147.624 269.071 147.59 268.99C147.556 268.908 147.507 268.833 147.444 268.771C147.382 268.708 147.307 268.658 147.225 268.625C147.143 268.591 147.056 268.573 146.967 268.573Z" fill="#2F2E41"/>
<path d="M150.63 268.573C150.542 268.573 150.454 268.591 150.372 268.625C150.29 268.658 150.216 268.708 150.153 268.771C150.091 268.833 150.041 268.908 150.007 268.99C149.973 269.071 149.956 269.159 149.956 269.248V272.719C149.956 272.897 150.027 273.068 150.154 273.195C150.28 273.321 150.452 273.392 150.63 273.392C150.809 273.392 150.98 273.321 151.107 273.195C151.233 273.068 151.304 272.897 151.305 272.719V269.248C151.305 269.159 151.287 269.071 151.254 268.99C151.22 268.908 151.17 268.833 151.107 268.771C151.045 268.708 150.97 268.658 150.888 268.625C150.807 268.591 150.719 268.573 150.63 268.573Z" fill="#2F2E41"/>
<path d="M154.293 268.573C154.205 268.573 154.117 268.591 154.035 268.625C153.953 268.658 153.879 268.708 153.816 268.771C153.754 268.833 153.704 268.908 153.67 268.99C153.636 269.071 153.619 269.159 153.619 269.248V272.719C153.619 272.897 153.691 273.068 153.817 273.195C153.943 273.321 154.115 273.392 154.293 273.392C154.472 273.392 154.643 273.321 154.77 273.195C154.896 273.068 154.967 272.897 154.968 272.719V269.248C154.968 269.159 154.95 269.071 154.917 268.99C154.883 268.908 154.833 268.833 154.77 268.771C154.708 268.708 154.633 268.658 154.551 268.625C154.47 268.591 154.382 268.573 154.293 268.573Z" fill="#2F2E41"/>
<path d="M157.216 300.929C162.848 300.929 167.413 296.364 167.413 290.732C167.413 285.101 162.848 280.535 157.216 280.535C151.584 280.535 147.019 285.101 147.019 290.732C147.019 296.364 151.584 300.929 157.216 300.929Z" fill="#FFB8B8"/>
<path d="M228.453 302.89C234.085 302.89 238.65 298.325 238.65 292.693C238.65 287.061 234.085 282.496 228.453 282.496C222.822 282.496 218.256 287.061 218.256 292.693C218.256 298.325 222.822 302.89 228.453 302.89Z" fill="#FFB8B8"/>
<path d="M333.705 169.612C332.697 167.945 331.503 166.166 329.633 165.622C327.468 164.991 325.243 166.243 323.356 167.479C317.714 171.173 312.279 175.177 307.079 179.472L307.084 179.537C311.133 179.258 314.494 190.024 318.542 189.744C321.468 189.543 325.182 178.268 327.768 176.884C328.749 176.359 329.705 175.657 330.816 175.608C332.198 175.548 333.402 176.512 334.348 177.52C339.946 183.481 341.566 192.597 347.846 197.834C343.886 188.068 339.158 178.631 333.705 169.612Z" fill="#1E1E1E"/>
<path d="M344.48 184.091C347.433 189.425 350.565 194.653 353.877 199.775V199.779C353.857 199.959 353.83 200.139 353.802 200.32C353.402 199.708 353.006 199.094 352.614 198.477C349.641 193.813 346.816 189.061 344.139 184.22C342.868 181.918 341.629 179.598 340.421 177.259C339.487 175.447 338.573 173.625 337.679 171.792C337.424 171.266 337.177 170.741 336.93 170.211C336.35 168.972 335.777 167.725 335.165 166.501C334.467 165.105 333.616 163.646 332.334 162.709C331.75 162.264 331.052 161.995 330.322 161.932C329.292 161.938 328.284 162.227 327.408 162.767C320.773 166.255 314.581 170.525 308.963 175.486C303.338 180.428 298.31 186.01 293.981 192.119C293.848 192.307 293.534 192.127 293.667 191.935C294.197 191.19 294.73 190.456 295.279 189.727C302.084 180.677 310.428 172.895 319.928 166.736C321.525 165.701 323.152 164.714 324.811 163.775C325.647 163.301 326.486 162.834 327.341 162.395C328.159 161.915 329.077 161.63 330.024 161.563C333.279 161.512 334.965 165.199 336.122 167.678C336.483 168.458 336.85 169.237 337.224 170.015C338.632 172.957 340.095 175.874 341.613 178.769C342.546 180.553 343.502 182.327 344.48 184.091Z" fill="#3F3D56"/>
<path d="M308.643 173.665C308.454 173.455 308.266 173.244 308.075 173.033C306.575 171.373 304.964 169.733 302.903 168.781C301.921 168.313 300.848 168.065 299.76 168.053C298.637 168.083 297.53 168.325 296.496 168.764C296.004 168.961 295.524 169.184 295.05 169.421C294.51 169.693 293.978 169.983 293.45 170.276C292.457 170.825 291.478 171.399 290.511 171.996C288.587 173.185 286.724 174.464 284.921 175.835C283.986 176.545 283.071 177.279 282.175 178.036C281.341 178.74 280.525 179.462 279.725 180.203C279.554 180.361 279.299 180.106 279.47 179.948C279.68 179.751 279.894 179.556 280.107 179.364C280.709 178.819 281.321 178.285 281.942 177.762C283.076 176.805 284.238 175.886 285.43 175.004C287.284 173.63 289.202 172.35 291.183 171.164C292.173 170.571 293.177 170.003 294.194 169.461C294.501 169.297 294.812 169.137 295.126 168.985C295.84 168.625 296.581 168.323 297.343 168.083C298.422 167.734 299.563 167.621 300.69 167.754C301.777 167.912 302.825 168.275 303.778 168.822C305.801 169.953 307.371 171.702 308.898 173.409C309.052 173.582 308.798 173.839 308.643 173.665Z" fill="#3F3D56"/>
<path d="M293.835 181.651C293.321 181.676 292.813 181.531 292.39 181.237C291.27 180.388 291.3 178.351 292.48 175.007C292.801 174.101 293.304 173.271 293.959 172.567C294.614 171.863 295.406 171.301 296.286 170.916C297.111 170.547 298.004 170.354 298.907 170.349C299.811 170.343 300.705 170.526 301.535 170.885C301.679 170.947 301.822 171.015 301.963 171.087C302.923 171.625 303.822 172.263 304.646 172.991C305.347 173.599 306.095 174.151 306.882 174.642L307.144 174.796L306.895 174.972C300.542 179.444 296.235 181.651 293.835 181.651Z" fill="#1E1E1E"/>
<path d="M318.266 155.033C316.177 155.033 314.152 154.308 312.538 152.981C310.924 151.655 309.821 149.809 309.416 147.76C307.669 148.113 306.066 148.977 304.809 150.24C303.553 151.504 302.699 153.112 302.355 154.86C302.011 156.609 302.193 158.421 302.877 160.066C303.562 161.712 304.719 163.117 306.201 164.106C307.684 165.095 309.427 165.622 311.209 165.622C312.991 165.621 314.733 165.093 316.215 164.103C317.697 163.113 318.853 161.707 319.537 160.061C320.22 158.415 320.401 156.603 320.056 154.855C319.467 154.973 318.867 155.033 318.266 155.033Z" fill="#1E1E1E"/>
<path opacity="0.74" d="M76.8008 169.545C84.2352 169.545 90.2619 163.518 90.2619 156.083C90.2619 148.649 84.2352 142.622 76.8008 142.622C69.3665 142.622 63.3397 148.649 63.3397 156.083C63.3397 163.518 69.3665 169.545 76.8008 169.545Z" fill="#3F3D56"/>
<path opacity="0.74" d="M90.2619 169.545C97.6962 169.545 103.723 163.518 103.723 156.083C103.723 148.649 97.6962 142.622 90.2619 142.622C82.8275 142.622 76.8008 148.649 76.8008 156.083C76.8008 163.518 82.8275 169.545 90.2619 169.545Z" fill="#3887FE"/>
<path opacity="0.74" d="M83.6452 158.816C91.0795 158.816 97.1063 152.789 97.1063 145.355C97.1063 137.921 91.0795 131.894 83.6452 131.894C76.2108 131.894 70.1841 137.921 70.1841 145.355C70.1841 152.789 76.2108 158.816 83.6452 158.816Z" fill="#FF6584"/>
<path d="M118.844 141.498L84.2682 152.36L84.5033 153.108L119.08 142.246L118.844 141.498Z" fill="#3F3D56"/>
<path d="M119.065 143.315C119.931 143.315 120.633 142.613 120.633 141.746C120.633 140.88 119.931 140.177 119.065 140.177C118.198 140.177 117.496 140.88 117.496 141.746C117.496 142.613 118.198 143.315 119.065 143.315Z" fill="#3F3D56"/>
<path d="M343.531 212.337C345.829 213.956 348.037 215.608 350.563 216.855C350.516 217.047 350.465 217.243 350.418 217.435C350.108 217.29 349.806 217.137 349.504 216.98C346.943 215.639 344.739 213.815 342.335 212.231C341.143 211.407 339.841 210.755 338.468 210.293C337.036 209.863 335.54 209.688 334.048 209.776C327.823 210.082 322.49 213.796 316.705 215.666C313.873 216.584 310.861 217.074 307.908 216.498C304.955 215.921 302.331 214.353 299.723 212.933C297.15 211.529 294.346 210.117 291.342 210.117C288.894 210.121 286.321 211.101 285.012 213.266C284.971 213.331 284.907 213.377 284.832 213.395C284.758 213.413 284.68 213.402 284.614 213.363C284.548 213.324 284.5 213.261 284.48 213.187C284.459 213.114 284.469 213.035 284.506 212.968C284.799 212.475 285.159 212.025 285.576 211.631C287.286 210.011 289.8 209.372 292.11 209.56C295.099 209.803 297.825 211.215 300.409 212.635C303.151 214.141 305.959 215.761 309.128 216.09C312.257 216.419 315.356 215.6 318.258 214.498C323.878 212.36 329.424 208.799 335.675 209.195C338.624 209.384 341.15 210.662 343.531 212.337Z" fill="#3F3D56"/>
<path d="M97.5312 98.9103V99.7064C97.2677 99.6543 96.9997 99.6281 96.7311 99.628H92.6288V108.437C92.628 109.741 92.1096 110.991 91.1875 111.913C90.2653 112.836 89.0148 113.354 87.7107 113.355H81.6473V114.712C81.6473 115.256 81.7553 115.794 81.965 116.296H81.1257C80.9503 115.786 80.8615 115.251 80.8629 114.712V113.355H77.5293V112.57H80.8629V103.762C80.8637 102.458 81.3821 101.207 82.3043 100.285C83.2264 99.3628 84.4769 98.8444 85.7811 98.8436H91.8444V97.4709H92.6288V98.8436H96.7311C96.9992 98.8439 97.2668 98.8662 97.5312 98.9103Z" fill="#3887FE"/>
<path d="M87.7107 92.5686H76.7606C75.4565 92.5694 74.206 93.0878 73.2838 94.0099C72.3617 94.9321 71.8433 96.1826 71.8425 97.4867V108.437C71.8433 109.741 72.3617 110.991 73.2838 111.914C74.206 112.836 75.4565 113.354 76.7606 113.355H87.7107C89.0148 113.354 90.2653 112.836 91.1875 111.914C92.1096 110.991 92.628 109.741 92.6288 108.437V97.4711C92.6241 96.1696 92.104 94.923 91.1822 94.0042C90.2604 93.0853 89.0122 92.5691 87.7107 92.5686ZM91.8444 108.437C91.8429 109.533 91.4069 110.583 90.632 111.358C89.8571 112.133 88.8066 112.569 87.7107 112.57H76.7606C75.6648 112.569 74.6142 112.133 73.8393 111.358C73.0644 110.583 72.6284 109.533 72.6269 108.437V97.4867C72.6284 96.3908 73.0644 95.3403 73.8393 94.5654C74.6142 93.7905 75.6648 93.3545 76.7606 93.353H87.7107C88.8039 93.3543 89.8523 93.788 90.6268 94.5596C91.4012 95.3312 91.839 96.3778 91.8444 97.471V108.437Z" fill="#3F3D56"/>
<path d="M80.8629 112.571V113.355H81.6473V112.571H80.8629ZM80.8629 112.571V113.355H81.6473V112.571H80.8629ZM97.5312 98.9104C97.2668 98.8663 96.9992 98.844 96.7311 98.8438H85.781C84.4769 98.8445 83.2264 99.3629 82.3043 100.285C81.3821 101.207 80.8637 102.458 80.8629 103.762V114.712C80.8615 115.251 80.9503 115.787 81.1257 116.296C81.4568 117.268 82.0836 118.112 82.9185 118.71C83.7533 119.308 84.7542 119.63 85.781 119.63H96.7311C98.0352 119.629 99.2857 119.111 100.208 118.189C101.13 117.267 101.648 116.016 101.649 114.712V103.762C101.649 102.596 101.235 101.469 100.481 100.58C99.7263 99.6919 98.6811 99.1001 97.5312 98.9104ZM100.865 114.712C100.863 115.808 100.427 116.858 99.6524 117.633C98.8775 118.408 97.827 118.844 96.7311 118.846H85.781C84.6852 118.844 83.6347 118.408 82.8598 117.633C82.0849 116.858 81.6489 115.808 81.6473 114.712V103.762C81.6488 102.666 82.0848 101.615 82.8597 100.841C83.6346 100.066 84.6852 99.6296 85.781 99.6281H96.7311C97.8273 99.6286 98.8785 100.064 99.6536 100.839C100.429 101.614 100.864 102.666 100.865 103.762V114.712ZM80.8629 112.571V113.355H81.6473V112.571H80.8629Z" fill="#3F3D56"/>
<path d="M73.1172 214.811H26.603C26.2792 214.811 25.9687 214.94 25.7394 215.168C25.5101 215.397 25.3806 215.707 25.3794 216.031V218.788C26.914 224.666 28.7719 230.454 30.9446 236.127H73.1172C73.2774 236.127 73.4361 236.096 73.5842 236.034C73.7322 235.973 73.8667 235.883 73.98 235.77C74.0933 235.657 74.1832 235.522 74.2444 235.374C74.3056 235.226 74.3371 235.068 74.3369 234.907V216.031C74.3366 215.708 74.2079 215.398 73.9793 215.169C73.7506 214.94 73.4406 214.812 73.1172 214.811Z" fill="#3887FE"/>
<path d="M68.6853 242.249H33.4271C33.8468 243.234 34.2743 244.21 34.7175 245.183H68.6853C70.5992 245.21 70.5796 242.222 68.6853 242.249Z" fill="#E4E4E4"/>
<path d="M68.6853 248.971H36.4862C36.9568 249.956 37.4405 250.934 37.9373 251.905H68.6853C70.5992 251.932 70.5796 248.948 68.6853 248.971Z" fill="#E4E4E4"/>
<path d="M68.6854 255.697H39.918C40.4435 256.682 40.9847 257.658 41.5338 258.631H68.6854C70.5993 258.659 70.5797 255.67 68.6854 255.697Z" fill="#E4E4E4"/>
<path d="M309.826 74.9099H309.603C310.298 74.9105 310.984 75.0728 311.607 75.3838H310.59C309.494 75.3851 308.443 75.821 307.668 76.5959C306.893 77.3708 306.457 78.4215 306.456 79.5174V90.4678C306.457 91.5637 306.893 92.6143 307.668 93.3893C308.443 94.1642 309.494 94.6001 310.59 94.6013H311.238C310.717 94.8057 310.162 94.911 309.603 94.9118H309.826C311.026 94.9104 312.176 94.4331 313.025 93.5847C313.873 92.7363 314.351 91.5859 314.352 90.386V79.4356C314.351 78.2358 313.873 77.0854 313.025 76.237C312.176 75.3886 311.026 74.9113 309.826 74.9099Z" fill="#3F3D56"/>
<path opacity="0.21" d="M309.826 74.9099H309.603C310.298 74.9105 310.984 75.0728 311.607 75.3838H310.59C309.494 75.3851 308.443 75.821 307.668 76.5959C306.893 77.3708 306.457 78.4215 306.456 79.5174V90.4678C306.457 91.5637 306.893 92.6143 307.668 93.3893C308.443 94.1642 309.494 94.6001 310.59 94.6013H311.238C310.717 94.8057 310.162 94.911 309.603 94.9118H309.826C311.026 94.9104 312.176 94.4331 313.025 93.5847C313.873 92.7363 314.351 91.5859 314.352 90.386V79.4356C314.351 78.2358 313.873 77.0854 313.025 76.237C312.176 75.3886 311.026 74.9113 309.826 74.9099Z" fill="black"/>
<path d="M280.804 74.9099H280.58C281.276 74.9105 281.962 75.0728 282.584 75.3838H281.567C280.471 75.3851 279.421 75.821 278.646 76.5959C277.871 77.3708 277.435 78.4215 277.434 79.5174V90.4678C277.435 91.5637 277.871 92.6143 278.646 93.3893C279.421 94.1642 280.471 94.6001 281.567 94.6013H282.216C281.695 94.8057 281.14 94.911 280.58 94.9118H280.804C282.004 94.9104 283.154 94.4331 284.003 93.5847C284.851 92.7363 285.328 91.5859 285.33 90.386V79.4356C285.328 78.2358 284.851 77.0854 284.003 76.237C283.154 75.3886 282.004 74.9113 280.804 74.9099Z" fill="#3887FE"/>
<path opacity="0.21" d="M280.804 74.9099H280.58C281.276 74.9105 281.962 75.0728 282.584 75.3838H281.567C280.471 75.3851 279.421 75.821 278.646 76.5959C277.871 77.3708 277.435 78.4215 277.434 79.5174V90.4678C277.435 91.5637 277.871 92.6143 278.646 93.3893C279.421 94.1642 280.471 94.6001 281.567 94.6013H282.216C281.695 94.8057 281.14 94.911 280.58 94.9118H280.804C282.004 94.9104 283.154 94.4331 284.003 93.5847C284.851 92.7363 285.328 91.5859 285.33 90.386V79.4356C285.328 78.2358 284.851 77.0854 284.003 76.237C283.154 75.3886 282.004 74.9113 280.804 74.9099Z" fill="black"/>
<path d="M281.611 94.6355C280.515 94.6343 279.464 94.1984 278.69 93.4234C277.915 92.6485 277.479 91.5979 277.477 90.502V79.5516C277.479 78.4556 277.915 77.405 278.69 76.6301C279.464 75.8551 280.515 75.4192 281.611 75.418H282.628C282.006 75.107 281.32 74.9447 280.624 74.9441H269.674C268.474 74.9455 267.324 75.4227 266.475 76.2712C265.627 77.1196 265.149 78.27 265.148 79.4698V90.4202C265.149 91.6201 265.627 92.7704 266.475 93.6189C267.324 94.4673 268.474 94.9446 269.674 94.946H280.624C281.184 94.9452 281.738 94.8399 282.259 94.6355L281.611 94.6355Z" fill="#3887FE"/>
<path d="M310.633 94.6355C309.537 94.6343 308.487 94.1984 307.712 93.4234C306.937 92.6485 306.501 91.5979 306.5 90.502V79.5516C306.501 78.4556 306.937 77.405 307.712 76.6301C308.487 75.8551 309.537 75.4192 310.633 75.418H311.65C311.028 75.107 310.342 74.9447 309.647 74.9441H298.696C297.496 74.9455 296.346 75.4227 295.497 76.2712C294.649 77.1196 294.172 78.27 294.17 79.4698V90.4202C294.172 91.6201 294.649 92.7704 295.497 93.6189C296.346 94.4673 297.496 94.9446 298.696 94.946H309.647C310.206 94.9452 310.761 94.8399 311.282 94.6355L310.633 94.6355Z" fill="#1E1E1E"/>
<path d="M323.564 77.6692C327.583 83.1979 331.259 88.9674 334.573 94.9453H327.718C326.518 94.9435 325.368 94.4661 324.519 93.6177C323.671 92.7694 323.193 91.6192 323.192 90.4194V79.4694C323.191 78.8501 323.318 78.2374 323.564 77.6692Z" fill="#FF6584"/>
<path d="M309.818 100.691L305.982 94.9453L303.178 90.7449C303.014 90.4995 302.785 90.3056 302.515 90.1855C302.246 90.0654 301.948 90.0241 301.656 90.0664C301.364 90.1087 301.09 90.2328 300.866 90.4244C300.642 90.616 300.477 90.8672 300.389 91.1489L299.209 94.9453L296.832 102.573C296.738 102.877 296.739 103.203 296.835 103.506C296.931 103.809 297.117 104.076 297.369 104.271C297.62 104.466 297.925 104.579 298.243 104.596C298.56 104.613 298.875 104.533 299.146 104.366L299.989 103.844C300.159 103.74 300.353 103.68 300.552 103.671C300.751 103.662 300.949 103.704 301.128 103.794C301.306 103.883 301.459 104.016 301.571 104.181C301.683 104.345 301.752 104.536 301.77 104.734L302.543 113.167C302.579 113.554 302.758 113.914 303.045 114.176C303.332 114.439 303.707 114.585 304.096 114.586C304.143 114.586 304.19 114.582 304.241 114.579L305.425 114.473C305.63 114.454 305.828 114.395 306.01 114.3C306.191 114.205 306.352 114.074 306.484 113.916C306.615 113.759 306.713 113.577 306.774 113.381C306.835 113.185 306.856 112.979 306.837 112.774L306.041 104.068C306.022 103.863 306.057 103.657 306.143 103.471C306.229 103.284 306.363 103.124 306.531 103.005C306.699 102.887 306.895 102.814 307.099 102.796C307.304 102.777 307.51 102.813 307.696 102.899L307.869 102.977C308.178 103.12 308.525 103.157 308.857 103.084C309.189 103.011 309.488 102.831 309.709 102.572C309.93 102.313 310.06 101.99 310.079 101.65C310.099 101.31 310.007 100.974 309.818 100.691Z" fill="#CCCCCC"/>
</svg>
