<svg width="34" height="33" viewBox="0 0 34 33" fill="none" xmlns="http://www.w3.org/2000/svg">
<g clip-path="url(#clip0_138_982)">
<path d="M6.40391 0.503174H27.5961C30.8092 0.503174 33.4069 3.10093 33.4069 6.31395V26.6858C33.4069 29.8989 30.8092 32.4966 27.5961 32.4966H6.40391C3.1909 32.4966 0.59314 29.8989 0.59314 26.6858V6.31395C0.59314 3.10093 3.1909 0.503174 6.40391 0.503174Z" fill="#330000"/>
<path d="M16.4531 19.6448H11.3669L10.3278 22.8578C10.3005 22.9808 10.1911 23.0629 10.0681 23.0492H7.49765C7.34725 23.0492 7.30624 22.9672 7.34725 22.8031L11.7498 10.1288C11.7908 9.99204 11.8318 9.84164 11.8865 9.67757C11.9412 9.39045 11.9685 9.08966 11.9685 8.78886C11.9549 8.7205 12.0095 8.65214 12.0779 8.63847H15.6191C15.7284 8.63847 15.7831 8.67949 15.7968 8.74785L20.7872 22.8304C20.8282 22.9808 20.7872 23.0492 20.6505 23.0492H17.793C17.6973 23.0629 17.6016 22.9945 17.5742 22.8988L16.4531 19.6448ZM12.1599 16.8693H15.6327C15.5507 16.5821 15.4413 16.2403 15.3183 15.8848C15.1952 15.5157 15.0722 15.1192 14.9491 14.709C14.8124 14.2852 14.6893 13.875 14.5526 13.4512C14.4159 13.0273 14.2928 12.6308 14.1835 12.2343C14.0741 11.8515 13.9784 11.496 13.8827 11.1679H13.8553C13.7323 11.7558 13.5819 12.3437 13.3905 12.9316C13.1854 13.5879 12.9803 14.2715 12.7615 14.9551C12.5701 15.6524 12.365 16.295 12.1599 16.8693ZM23.8362 11.0311C23.385 11.0448 22.9475 10.8671 22.6193 10.5526C22.3049 10.2108 22.1408 9.75961 22.1545 9.29474C22.1408 8.82988 22.3185 8.39236 22.6467 8.0779C22.9748 7.76343 23.4123 7.59937 23.8635 7.59937C24.3967 7.59937 24.8069 7.76343 25.1077 8.0779C25.4085 8.40604 25.5726 8.84355 25.5589 9.29474C25.5726 9.75961 25.4085 10.2108 25.0804 10.5526C24.7659 10.8807 24.301 11.0585 23.8362 11.0311ZM22.3049 22.8988V12.371C22.3049 12.2343 22.3596 12.1796 22.4826 12.1796H25.1897C25.3128 12.1796 25.3675 12.248 25.3675 12.371V22.8988C25.3675 23.0492 25.3128 23.1175 25.1897 23.1175H22.51C22.3732 23.1175 22.3049 23.0355 22.3049 22.8988Z" fill="#FF9A00"/>
</g>
<defs>
<clipPath id="clip0_138_982">
<rect width="32.8138" height="32" fill="white" transform="translate(0.59314 0.5)"/>
</clipPath>
</defs>
</svg>
