<svg width="33" height="32" viewBox="0 0 33 32" fill="none" xmlns="http://www.w3.org/2000/svg">
<g clip-path="url(#clip0_138_1024)">
<path d="M5.90391 0.00317383H27.0961C30.3092 0.00317383 32.9069 2.60093 32.9069 5.81395V26.1858C32.9069 29.3989 30.3092 31.9966 27.0961 31.9966H5.90391C2.6909 31.9966 0.0931396 29.3989 0.0931396 26.1858V5.81395C0.0931396 2.60093 2.6909 0.00317383 5.90391 0.00317383Z" fill="#001E36"/>
<path d="M7.4762 22.4398V8.37086C7.4762 8.27515 7.51721 8.22046 7.61292 8.22046C7.84535 8.22046 8.06411 8.22046 8.37858 8.20679C8.70671 8.19312 9.04852 8.19312 9.41768 8.17944C9.78683 8.16577 10.1833 8.16577 10.6072 8.1521C11.031 8.13843 11.4412 8.13843 11.8514 8.13843C12.9725 8.13843 13.9022 8.27515 14.6679 8.56227C15.3515 8.7947 15.9804 9.17753 16.5 9.68341C16.9375 10.1209 17.2793 10.6542 17.4981 11.2421C17.7032 11.8163 17.8125 12.4042 17.8125 13.0195C17.8125 14.1953 17.5391 15.166 16.9922 15.9317C16.4453 16.6974 15.6796 17.2716 14.7909 17.5997C13.8612 17.9415 12.8358 18.0646 11.7146 18.0646C11.3865 18.0646 11.1677 18.0646 11.031 18.0509C10.8943 18.0373 10.7029 18.0373 10.4431 18.0373V22.4261C10.4568 22.5218 10.3884 22.6038 10.2927 22.6175H7.64027C7.53089 22.6175 7.4762 22.5628 7.4762 22.4398ZM10.4568 10.8592V15.4532C10.6482 15.4668 10.8259 15.4805 10.99 15.4805H11.7146C12.2479 15.4805 12.7811 15.3985 13.287 15.2344C13.7245 15.1114 14.1073 14.8516 14.4081 14.5098C14.6952 14.168 14.832 13.7031 14.832 13.1015C14.8456 12.6777 14.7362 12.2538 14.5175 11.8847C14.2851 11.5292 13.9569 11.2557 13.5604 11.1053C13.0545 10.9003 12.5076 10.8182 11.9471 10.8319C11.5916 10.8319 11.2771 10.8319 11.0174 10.8456C10.7439 10.8319 10.5525 10.8456 10.4568 10.8592ZM26.3441 14.6192C25.9339 14.4004 25.4964 14.25 25.0316 14.1543C24.5257 14.0449 24.0198 13.9765 23.5003 13.9765C23.2268 13.9629 22.9397 14.0039 22.6799 14.0723C22.5022 14.1133 22.3518 14.209 22.2561 14.3457C22.1877 14.4551 22.1467 14.5918 22.1467 14.7149C22.1467 14.8379 22.2014 14.961 22.2834 15.0703C22.4065 15.2207 22.5705 15.3438 22.7483 15.4395C23.0627 15.6036 23.3909 15.754 23.719 15.8907C24.4573 16.1368 25.1683 16.4786 25.8246 16.8888C26.2758 17.1759 26.6449 17.5587 26.9047 18.0236C27.1234 18.4611 27.2328 18.9396 27.2192 19.4318C27.2328 20.0744 27.0414 20.717 26.6859 21.2503C26.3031 21.7972 25.7699 22.221 25.1546 22.4671C24.4847 22.7542 23.6643 22.9046 22.6799 22.9046C22.051 22.9046 21.4357 22.8499 20.8205 22.7269C20.3419 22.6449 19.8634 22.4945 19.4259 22.2894C19.3302 22.2347 19.2618 22.139 19.2755 22.0296V19.6506C19.2755 19.6096 19.2892 19.5549 19.3302 19.5275C19.3712 19.5002 19.4122 19.5139 19.4532 19.5412C19.9865 19.8557 20.547 20.0744 21.1486 20.2112C21.6682 20.3479 22.2151 20.4163 22.7619 20.4163C23.2815 20.4163 23.6507 20.3479 23.8968 20.2248C24.1155 20.1291 24.2659 19.8967 24.2659 19.6506C24.2659 19.4592 24.1565 19.2814 23.9378 19.1037C23.719 18.926 23.2678 18.7209 22.5979 18.4611C21.9006 18.215 21.258 17.8869 20.6564 17.4767C20.2326 17.1759 19.8771 16.7794 19.6173 16.3145C19.3985 15.877 19.2892 15.3985 19.3028 14.9199C19.3028 14.332 19.4669 13.7715 19.7677 13.2656C20.1095 12.7187 20.6154 12.2812 21.2033 12.0077C21.8459 11.6796 22.6526 11.5292 23.6233 11.5292C24.1839 11.5292 24.7581 11.5702 25.3187 11.6522C25.7289 11.7069 26.1254 11.8163 26.4945 11.9667C26.5492 11.9804 26.6039 12.0351 26.6312 12.0898C26.6449 12.1444 26.6586 12.1991 26.6586 12.2538V14.4824C26.6586 14.5371 26.6312 14.5918 26.5902 14.6192C26.4672 14.6465 26.3988 14.6465 26.3441 14.6192Z" fill="#31A8FF"/>
</g>
<defs>
<clipPath id="clip0_138_1024">
<rect width="32.8138" height="32" fill="white" transform="translate(0.0931396)"/>
</clipPath>
</defs>
</svg>
