<svg width="32" height="32" viewBox="0 0 32 32" fill="none" xmlns="http://www.w3.org/2000/svg">
<path fill-rule="evenodd" clip-rule="evenodd" d="M18.9091 7.11108C18.5234 7.11108 18.1534 7.29839 17.8806 7.63178C17.6078 7.96518 17.4546 8.41737 17.4546 8.88886V23.1111C17.4546 23.5826 17.6078 24.0348 17.8806 24.3682C18.1534 24.7016 18.5234 24.8889 18.9091 24.8889H24.7273C25.1131 24.8889 25.4831 24.7016 25.7558 24.3682C26.0286 24.0348 26.1819 23.5826 26.1819 23.1111V8.88886C26.1819 8.41737 26.0286 7.96518 25.7558 7.63178C25.4831 7.29839 25.1131 7.11108 24.7273 7.11108H18.9091ZM23.2728 10.6666H20.3637V21.3333H23.2728V10.6666Z" fill="#CBEAF6"/>
<path d="M7.27278 7.11108C6.88701 7.11108 6.51704 7.29839 6.24426 7.63178C5.97148 7.96518 5.81824 8.41737 5.81824 8.88886C5.81824 9.36036 5.97148 9.81254 6.24426 10.1459C6.51704 10.4793 6.88701 10.6666 7.27278 10.6666H13.091C13.4767 10.6666 13.8467 10.4793 14.1195 10.1459C14.3923 9.81254 14.5455 9.36036 14.5455 8.88886C14.5455 8.41737 14.3923 7.96518 14.1195 7.63178C13.8467 7.29839 13.4767 7.11108 13.091 7.11108H7.27278ZM7.27278 14.2222C6.88701 14.2222 6.51704 14.4095 6.24426 14.7429C5.97148 15.0763 5.81824 15.5285 5.81824 16C5.81824 16.4715 5.97148 16.9237 6.24426 17.2571C6.51704 17.5904 6.88701 17.7778 7.27278 17.7778H13.091C13.4767 17.7778 13.8467 17.5904 14.1195 17.2571C14.3923 16.9237 14.5455 16.4715 14.5455 16C14.5455 15.5285 14.3923 15.0763 14.1195 14.7429C13.8467 14.4095 13.4767 14.2222 13.091 14.2222H7.27278ZM5.81824 23.1111C5.81824 22.6396 5.97148 22.1874 6.24426 21.854C6.51704 21.5206 6.88701 21.3333 7.27278 21.3333H13.091C13.4767 21.3333 13.8467 21.5206 14.1195 21.854C14.3923 22.1874 14.5455 22.6396 14.5455 23.1111C14.5455 23.5826 14.3923 24.0348 14.1195 24.3682C13.8467 24.7016 13.4767 24.8889 13.091 24.8889H7.27278C6.88701 24.8889 6.51704 24.7016 6.24426 24.3682C5.97148 24.0348 5.81824 23.5826 5.81824 23.1111Z" fill="#CBEAF6"/>
<path fill-rule="evenodd" clip-rule="evenodd" d="M4.36364 0C3.20633 0 2.09642 0.561903 1.27808 1.5621C0.459739 2.56229 0 3.91885 0 5.33333V26.6667C0 28.0812 0.459739 29.4377 1.27808 30.4379C2.09642 31.4381 3.20633 32 4.36364 32H27.6364C28.7937 32 29.9036 31.4381 30.7219 30.4379C31.5403 29.4377 32 28.0812 32 26.6667V5.33333C32 3.91885 31.5403 2.56229 30.7219 1.5621C29.9036 0.561903 28.7937 0 27.6364 0H4.36364ZM27.6364 3.55556H4.36364C3.97787 3.55556 3.6079 3.74286 3.33512 4.07625C3.06234 4.40965 2.90909 4.86184 2.90909 5.33333V26.6667C2.90909 27.1382 3.06234 27.5903 3.33512 27.9237C3.6079 28.2571 3.97787 28.4444 4.36364 28.4444H27.6364C28.0221 28.4444 28.3921 28.2571 28.6649 27.9237C28.9377 27.5903 29.0909 27.1382 29.0909 26.6667V5.33333C29.0909 4.86184 28.9377 4.40965 28.6649 4.07625C28.3921 3.74286 28.0221 3.55556 27.6364 3.55556Z" fill="#CBEAF6"/>
</svg>
