<svg width="32" height="32" viewBox="0 0 32 32" fill="none" xmlns="http://www.w3.org/2000/svg">
<path d="M29.3333 0H2.66667C1.95942 0 1.28115 0.280952 0.781049 0.781049C0.280952 1.28115 0 1.95942 0 2.66667L0 29.3333C0 30.0406 0.280952 30.7189 0.781049 31.219C1.28115 31.719 1.95942 32 2.66667 32H29.3333C30.0406 32 30.7189 31.719 31.219 31.219C31.719 30.7189 32 30.0406 32 29.3333V2.66667C32 1.95942 31.719 1.28115 31.219 0.781049C30.7189 0.280952 30.0406 0 29.3333 0V0ZM8 21.3333C7.73629 21.3333 7.47851 21.2551 7.25924 21.1086C7.03997 20.9621 6.86908 20.7539 6.76816 20.5102C6.66724 20.2666 6.64084 19.9985 6.69229 19.7399C6.74373 19.4812 6.87072 19.2437 7.05719 19.0572C7.24366 18.8707 7.48124 18.7437 7.73988 18.6923C7.99852 18.6408 8.26661 18.6672 8.51024 18.7682C8.75388 18.8691 8.96212 19.04 9.10863 19.2592C9.25513 19.4785 9.33333 19.7363 9.33333 20C9.33298 20.3535 9.19239 20.6924 8.94242 20.9424C8.69245 21.1924 8.35351 21.333 8 21.3333ZM29.3333 8H26.4213C26.1068 7.11038 25.4879 6.36059 24.674 5.88316C23.8601 5.40572 22.9037 5.23138 21.9737 5.39094C21.0437 5.5505 20.2 6.0337 19.5919 6.75512C18.9837 7.47655 18.6501 8.38975 18.6501 9.33333C18.6501 10.2769 18.9837 11.1901 19.5919 11.9115C20.2 12.633 21.0437 13.1162 21.9737 13.2757C22.9037 13.4353 23.8601 13.2609 24.674 12.7835C25.4879 12.3061 26.1068 11.5563 26.4213 10.6667H29.3333V16H24V18.6667H29.3333V21.3333H26.6667V24H29.3333V29.3333H18.6667V27.7547C19.5563 27.4401 20.3061 26.8212 20.7835 26.0074C21.2609 25.1935 21.4353 24.237 21.2757 23.307C21.1162 22.377 20.633 21.5334 19.9115 20.9252C19.1901 20.317 18.2769 19.9834 17.3333 19.9834C16.3898 19.9834 15.4765 20.317 14.7551 20.9252C14.0337 21.5334 13.5505 22.377 13.3909 23.307C13.2314 24.237 13.4057 25.1935 13.8832 26.0074C14.3606 26.8212 15.1104 27.4401 16 27.7547V29.3333H9.33333V23.7547C10.223 23.4401 10.9727 22.8212 11.4502 22.0074C11.9276 21.1935 12.102 20.237 11.9424 19.307C11.7828 18.377 11.2996 17.5334 10.5782 16.9252C9.85679 16.317 8.94358 15.9834 8 15.9834C7.05642 15.9834 6.14321 16.317 5.42179 16.9252C4.70036 17.5334 4.21717 18.377 4.05761 19.307C3.89804 20.237 4.07239 21.1935 4.54982 22.0074C5.02726 22.8212 5.77705 23.4401 6.66667 23.7547V29.3333H2.66667V2.66667H8V10.6667H10.6667V2.66667H13.3333V16H16V2.66667H29.3333V8ZM24 9.33333C24 9.59704 23.9218 9.85483 23.7753 10.0741C23.6288 10.2934 23.4205 10.4643 23.1769 10.5652C22.9333 10.6661 22.6652 10.6925 22.4065 10.641C22.1479 10.5896 21.9103 10.4626 21.7239 10.2761C21.5374 10.0897 21.4104 9.8521 21.359 9.59345C21.3075 9.33481 21.3339 9.06672 21.4348 8.82309C21.5357 8.57945 21.7066 8.37122 21.9259 8.22471C22.1452 8.0782 22.403 8 22.6667 8C23.0202 8.00035 23.3591 8.14094 23.6091 8.39091C23.8591 8.64089 23.9996 8.97982 24 9.33333Z" fill="#CBEAF6"/>
</svg>
