<svg width="108" height="144" viewBox="0 0 108 144" fill="none" xmlns="http://www.w3.org/2000/svg">
<path d="M103.98 28.1544L80.5431 4.71791C78.0291 2.20386 74.6211 0.779236 71.0735 0.779236H14.0606C6.65812 0.80717 0.652344 6.81294 0.652344 14.2154V130.42C0.652344 137.823 6.65812 143.828 14.0606 143.828H94.51C101.912 143.828 107.918 137.823 107.918 130.42V37.6519C107.918 34.1043 106.494 30.6684 103.98 28.1544ZM93.4206 36.5625H72.163V15.3048L93.4206 36.5625ZM14.0606 130.42V14.2154H58.7547V43.2666C58.7547 46.9818 61.7436 49.9707 65.4588 49.9707H94.51V130.42H14.0606Z" fill="black"/>
</svg>
