<svg width="33" height="24" viewBox="0 0 33 24" fill="none" xmlns="http://www.w3.org/2000/svg">
<path d="M27.343 2.02697C27.334 2.01 27.3192 1.99671 27.3011 1.98947C25.2101 1.05243 23.0036 0.384243 20.7366 0.00163895C20.7161 -0.00210093 20.6948 0.000597065 20.6758 0.00934923C20.6569 0.0181014 20.6413 0.0324621 20.6312 0.0503891C20.3307 0.583045 20.058 1.13017 19.814 1.68968C17.3703 1.32737 14.8847 1.32737 12.4411 1.68968C12.1955 1.12875 11.9183 0.581488 11.611 0.0503891C11.6004 0.0328517 11.5847 0.0188217 11.5659 0.0101264C11.5471 0.0014311 11.526 -0.0015265 11.5054 0.00163895C9.23827 0.38344 7.03157 1.05167 4.9409 1.98952C4.923 1.99693 4.9079 2.00958 4.89768 2.02573C0.716735 8.12422 -0.428583 14.0728 0.133271 19.9476C0.134852 19.962 0.13938 19.976 0.146589 19.9886C0.153797 20.0013 0.163536 20.0124 0.175229 20.0213C2.60975 21.7819 5.3328 23.1259 8.22816 23.9957C8.24855 24.0017 8.27032 24.0014 8.29055 23.9949C8.31078 23.9885 8.32849 23.9761 8.34131 23.9595C8.96317 23.133 9.51418 22.2579 9.98875 21.343C9.99527 21.3304 9.999 21.3166 9.99968 21.3026C10.0004 21.2885 9.99798 21.2745 9.9927 21.2614C9.98742 21.2483 9.97935 21.2364 9.96904 21.2266C9.95873 21.2167 9.9464 21.2092 9.93286 21.2043C9.06395 20.8796 8.22274 20.4881 7.41713 20.0336C7.4025 20.0252 7.39021 20.0134 7.38135 19.9993C7.37249 19.9851 7.36733 19.9691 7.36632 19.9525C7.36532 19.936 7.36851 19.9194 7.3756 19.9044C7.38269 19.8893 7.39347 19.8762 7.40699 19.8661C7.57603 19.7424 7.74517 19.6138 7.90659 19.4838C7.92093 19.4723 7.93828 19.4649 7.9567 19.4624C7.97511 19.46 7.99384 19.4627 8.0108 19.4701C13.2887 21.8228 19.0027 21.8228 24.2181 19.4701C24.2351 19.4622 24.2541 19.4592 24.2727 19.4614C24.2914 19.4636 24.3091 19.4709 24.3237 19.4826C24.4851 19.6125 24.6542 19.7424 24.8245 19.8661C24.8381 19.8761 24.849 19.8891 24.8562 19.9041C24.8634 19.9191 24.8667 19.9356 24.8658 19.9522C24.8649 19.9687 24.8599 19.9848 24.8512 19.999C24.8424 20.0132 24.8302 20.0251 24.8156 20.0336C24.0119 20.4919 23.1699 20.8832 22.2987 21.2031C22.2852 21.2081 22.2729 21.2159 22.2626 21.2259C22.2524 21.2358 22.2444 21.2478 22.2392 21.261C22.2341 21.2742 22.2318 21.2884 22.2326 21.3025C22.2334 21.3166 22.2372 21.3304 22.2438 21.343C22.7264 22.2528 23.2766 23.1268 23.89 23.958C23.9025 23.9751 23.9201 23.9879 23.9404 23.9946C23.9607 24.0014 23.9827 24.0017 24.0032 23.9955C26.9037 23.1287 29.6315 21.7846 32.0691 20.0213C32.081 20.0128 32.0909 20.002 32.0981 19.9895C32.1053 19.977 32.1098 19.9632 32.1111 19.9489C32.7837 13.1569 30.9849 7.25711 27.343 2.02697ZM10.777 16.3704C9.18793 16.3704 7.87862 14.9461 7.87862 13.1969C7.87862 11.4477 9.16253 10.0233 10.777 10.0233C12.404 10.0233 13.7006 11.4601 13.6752 13.1968C13.6752 14.9461 12.3913 16.3704 10.777 16.3704ZM21.493 16.3704C19.904 16.3704 18.5947 14.9461 18.5947 13.1969C18.5947 11.4477 19.8786 10.0233 21.493 10.0233C23.1201 10.0233 24.4167 11.4601 24.3913 13.1968C24.3913 14.9461 23.1201 16.3704 21.493 16.3704Z" fill="#3887FE"/>
</svg>
