<svg width="50" height="40" viewBox="0 0 50 40" fill="none" xmlns="http://www.w3.org/2000/svg">
<path d="M24.936 22.1243L7.94127 39.119C6.76664 40.2937 4.86723 40.2937 3.70509 39.119L0.880975 36.2949C-0.293658 35.1203 -0.293658 33.2209 0.880975 32.0587L12.9272 20.0125L0.880975 7.96626C-0.293658 6.79163 -0.293658 4.89222 0.880975 3.73008L3.6926 0.880975C4.86723 -0.293658 6.76663 -0.293658 7.92877 0.880975L24.9235 17.8757C26.1106 19.0503 26.1106 20.9497 24.936 22.1243ZM48.9285 17.8757L31.9338 0.880975C30.7591 -0.293658 28.8597 -0.293658 27.6976 0.880975L24.8735 3.70509C23.6988 4.87973 23.6988 6.77913 24.8735 7.94127L36.9197 19.9875L24.8735 32.0337C23.6988 33.2084 23.6988 35.1078 24.8735 36.2699L27.6976 39.094C28.8722 40.2687 30.7716 40.2687 31.9338 39.094L48.9285 22.0993C50.1031 20.9497 50.1031 19.0503 48.9285 17.8757Z" fill="url(#paint0_linear_77_491)"/>
<defs>
<linearGradient id="paint0_linear_77_491" x1="1.73087e-07" y1="19.7656" x2="66.0173" y2="19.7656" gradientUnits="userSpaceOnUse">
<stop stop-color="#3887FE"/>
<stop offset="1" stop-color="#CBEAF6"/>
</linearGradient>
</defs>
</svg>
