<svg width="33" height="32" viewBox="0 0 33 32" fill="none" xmlns="http://www.w3.org/2000/svg">
<path d="M6.17626 0C4.59474 0 3.078 0.628257 1.95969 1.74656C0.841391 2.86486 0.213135 4.38161 0.213135 5.96313V24.0036C0.213225 24.2034 0.272374 24.3988 0.38315 24.5651C0.493926 24.7314 0.651386 24.8613 0.835746 24.9384C1.02011 25.0155 1.22314 25.0364 1.41934 24.9984C1.61554 24.9605 1.79614 24.8654 1.93847 24.7251L4.60597 22.0914L12.036 14.7766C12.5937 14.2279 13.3447 13.9204 14.1271 13.9204C14.9095 13.9204 15.6605 14.2279 16.2182 14.7766L19.6808 18.1856L24.2684 13.5979C25.2731 12.59 26.6193 11.9957 28.0411 11.9322V5.96313C28.0411 4.38161 27.4128 2.86486 26.2945 1.74656C25.1762 0.628257 23.6595 0 22.0779 0H6.17626ZM22.0779 8.94469C22.0779 9.33624 22.0008 9.72395 21.851 10.0857C21.7011 10.4474 21.4815 10.7761 21.2047 11.053C20.9278 11.3298 20.5991 11.5495 20.2374 11.6993C19.8756 11.8491 19.4879 11.9263 19.0964 11.9263C18.7048 11.9263 18.3171 11.8491 17.9554 11.6993C17.5936 11.5495 17.265 11.3298 16.9881 11.053C16.7112 10.7761 16.4916 10.4474 16.3418 10.0857C16.1919 9.72395 16.1148 9.33624 16.1148 8.94469C16.1148 8.15393 16.4289 7.39556 16.9881 6.83641C17.5472 6.27726 18.3056 5.96313 19.0964 5.96313C19.8871 5.96313 20.6455 6.27726 21.2047 6.83641C21.7638 7.39556 22.0779 8.15393 22.0779 8.94469ZM20.0902 8.94469C20.0902 9.20828 19.9855 9.46107 19.7991 9.64745C19.6128 9.83384 19.36 9.93855 19.0964 9.93855C18.8328 9.93855 18.58 9.83384 18.3936 9.64745C18.2072 9.46107 18.1025 9.20828 18.1025 8.94469C18.1025 8.68111 18.2072 8.42832 18.3936 8.24193C18.58 8.05555 18.8328 7.95084 19.0964 7.95084C19.36 7.95084 19.6128 8.05555 19.7991 8.24193C19.9855 8.42832 20.0902 8.68111 20.0902 8.94469ZM14.6697 23.1966L18.2735 19.5909L14.8248 16.1939C14.6388 16.0106 14.3882 15.9078 14.1271 15.9078C13.866 15.9078 13.6154 16.0106 13.4294 16.1939L5.03333 24.4608C4.59603 24.9299 5.01743 25.6275 5.62169 25.4109L6.27167 25.1783C7.67301 24.6754 9.77799 24.0851 11.7319 24.8722C12.3004 25.1008 12.7496 25.4288 13.0915 25.8104C13.3976 24.8265 13.9383 23.928 14.6697 23.1966ZM16.0751 24.6019L25.6757 15.0012C26.3731 14.3043 27.3189 13.913 28.3049 13.9134C29.2908 13.9137 30.2363 14.3058 30.9332 15.0032C31.6301 15.7007 32.0214 16.6464 32.0211 17.6324C32.0207 18.6184 31.6286 19.5638 30.9312 20.2607L21.3306 29.8594C20.7713 30.4189 20.0705 30.816 19.3031 31.0083L16.8761 31.6145C14.6459 32.2665 11.3205 32.0558 10.2888 31.2508C9.39635 30.5551 9.36057 29.4877 9.66072 28.7781C9.7283 28.619 9.60904 28.4143 9.44008 28.4401C8.45617 28.5793 7.65114 28.9371 6.85606 29.2889C5.69524 29.8057 4.55827 30.3086 2.92835 30.1058C1.51508 29.9309 0.727951 29.1935 0.294631 28.466C0.0521301 28.0605 0.586824 27.6868 1.01021 27.8975C1.74168 28.2632 2.65802 28.5634 3.42726 28.3944C3.92618 28.2831 4.57417 28.0108 5.30167 27.7047C7.06079 26.9633 9.28305 26.0291 10.9925 26.7168C12.2567 27.2257 12.1513 28.6667 11.7955 29.3605C11.7259 29.4916 11.7796 29.6785 11.9247 29.7123C12.6517 29.86 13.3939 29.9188 14.1351 29.8872C14.1431 29.7934 14.1584 29.7004 14.1808 29.6089L14.9262 26.6313C15.1168 25.8633 15.5141 25.1621 16.0751 24.6039V24.6019Z" fill="#3887FE"/>
</svg>
