<svg width="24" height="24" viewBox="0 0 24 24" fill="none" xmlns="http://www.w3.org/2000/svg">
<g clip-path="url(#clip0_47_170)">
<path d="M16.703 -0.333336H6.64198C2.2718 -0.333336 -0.333496 2.27196 -0.333496 6.64214V16.6911C-0.333496 21.0733 2.2718 23.6786 6.64198 23.6786H16.691C21.0612 23.6786 23.6665 21.0733 23.6665 16.7032V6.64214C23.6785 2.27196 21.0732 -0.333336 16.703 -0.333336ZM11.6725 16.331C9.10321 16.331 7.01416 14.2419 7.01416 11.6726C7.01416 9.10336 9.10321 7.01432 11.6725 7.01432C14.2418 7.01432 16.3308 9.10336 16.3308 11.6726C16.3308 14.2419 14.2418 16.331 11.6725 16.331ZM18.78 5.52558C18.72 5.66965 18.636 5.80172 18.5279 5.92178C18.4078 6.02983 18.2758 6.11388 18.1317 6.17391C17.9132 6.26665 17.672 6.2922 17.439 6.2473C17.2059 6.20239 16.9915 6.08907 16.8231 5.92178C16.715 5.80172 16.631 5.66965 16.5709 5.52558C16.5093 5.38129 16.4766 5.22626 16.4749 5.06936C16.4749 4.91328 16.5109 4.7572 16.5709 4.61313C16.631 4.45705 16.715 4.33699 16.8231 4.21693C17.0992 3.94079 17.5194 3.80873 17.9036 3.89277C17.9876 3.90478 18.0597 3.92879 18.1317 3.96481C18.2037 3.98882 18.2758 4.02484 18.3478 4.07286C18.4078 4.10888 18.4679 4.16891 18.5279 4.21693C18.636 4.33699 18.72 4.45705 18.78 4.61313C18.8401 4.7572 18.8761 4.91328 18.8761 5.06936C18.8761 5.22543 18.8401 5.38151 18.78 5.52558Z" fill="#3887FE"/>
</g>
<defs>
<clipPath id="clip0_47_170">
<rect width="24" height="24" fill="white"/>
</clipPath>
</defs>
</svg>
