<svg width="43" height="43" viewBox="0 0 43 43" fill="none" xmlns="http://www.w3.org/2000/svg">
<path d="M18.9738 24.0263C19.7083 24.725 19.7083 25.8717 18.9738 26.5704C18.275 27.2692 17.1283 27.2692 16.4296 26.5704C14.7515 24.8898 13.8089 22.6119 13.8089 20.2369C13.8089 17.8619 14.7515 15.584 16.4296 13.9033L22.7721 7.56084C24.4527 5.88273 26.7306 4.94019 29.1056 4.94019C31.4806 4.94019 33.7585 5.88273 35.4392 7.56084C37.1173 9.24147 38.0598 11.5194 38.0598 13.8944C38.0598 16.2694 37.1173 18.5473 35.4392 20.2279L32.7696 22.8975C32.7875 21.4283 32.5546 19.9592 32.0529 18.5617L32.895 17.7017C33.3973 17.2048 33.796 16.6133 34.0682 15.9613C34.3403 15.3093 34.4804 14.6098 34.4804 13.9033C34.4804 13.1968 34.3403 12.4974 34.0682 11.8454C33.796 11.1934 33.3973 10.6019 32.895 10.105C32.3982 9.60274 31.8066 9.20399 31.1546 8.93186C30.5027 8.65973 29.8032 8.5196 29.0967 8.5196C28.3902 8.5196 27.6907 8.65973 27.0387 8.93186C26.3867 9.20399 25.7952 9.60274 25.2983 10.105L18.9738 16.4296C18.4715 16.9264 18.0727 17.518 17.8006 18.17C17.5285 18.8219 17.3884 19.5214 17.3884 20.2279C17.3884 20.9344 17.5285 21.6339 17.8006 22.2859C18.0727 22.9379 18.4715 23.5294 18.9738 24.0263ZM24.0263 16.4296C24.725 15.7308 25.8717 15.7308 26.5704 16.4296C28.2485 18.1102 29.1911 20.3881 29.1911 22.7631C29.1911 25.1381 28.2485 27.416 26.5704 29.0967L20.2279 35.4392C18.5473 37.1173 16.2694 38.0598 13.8944 38.0598C11.5194 38.0598 9.24147 37.1173 7.56084 35.4392C5.88273 33.7585 4.94019 31.4806 4.94019 29.1056C4.94019 26.7306 5.88273 24.4527 7.56084 22.7721L10.2304 20.1025C10.2125 21.5717 10.4454 23.0408 10.9471 24.4563L10.105 25.2983C9.60274 25.7952 9.20399 26.3867 8.93186 27.0387C8.65973 27.6907 8.5196 28.3902 8.5196 29.0967C8.5196 29.8032 8.65973 30.5027 8.93186 31.1546C9.20399 31.8066 9.60274 32.3982 10.105 32.895C10.6019 33.3973 11.1934 33.796 11.8454 34.0682C12.4974 34.3403 13.1968 34.4804 13.9033 34.4804C14.6098 34.4804 15.3093 34.3403 15.9613 34.0682C16.6133 33.796 17.2048 33.3973 17.7017 32.895L24.0263 26.5704C24.5285 26.0736 24.9273 25.482 25.1994 24.8301C25.4715 24.1781 25.6117 23.4786 25.6117 22.7721C25.6117 22.0656 25.4715 21.3661 25.1994 20.7141C24.9273 20.0621 24.5285 19.4706 24.0263 18.9738C23.8522 18.8107 23.7135 18.6137 23.6187 18.3949C23.5239 18.1761 23.475 17.9401 23.475 17.7017C23.475 17.4632 23.5239 17.2273 23.6187 17.0085C23.7135 16.7897 23.8522 16.5926 24.0263 16.4296Z" fill="#CBEAF6"/>
</svg>
