<svg width="16" height="25" viewBox="0 0 16 25" fill="none" xmlns="http://www.w3.org/2000/svg">
<g clip-path="url(#clip0_138_952)">
<path d="M4 24.5C6.208 24.5 8 22.708 8 20.5V16.5H4C1.792 16.5 0 18.292 0 20.5C0 22.708 1.792 24.5 4 24.5Z" fill="#0ACF83"/>
<path d="M0 12.5C0 10.292 1.792 8.5 4 8.5H8V16.5H4C1.792 16.5 0 14.708 0 12.5Z" fill="#A259FF"/>
<path d="M0 4.5C0 2.292 1.792 0.5 4 0.5H8V8.5H4C1.792 8.5 0 6.708 0 4.5Z" fill="#F24E1E"/>
<path d="M8 0.5H12C14.208 0.5 16 2.292 16 4.5C16 6.708 14.208 8.5 12 8.5H8V0.5Z" fill="#FF7262"/>
<path d="M16 12.5C16 14.708 14.208 16.5 12 16.5C9.792 16.5 8 14.708 8 12.5C8 10.292 9.792 8.5 12 8.5C14.208 8.5 16 10.292 16 12.5Z" fill="#1ABCFE"/>
</g>
<defs>
<clipPath id="clip0_138_952">
<rect width="16" height="24" fill="white" transform="translate(0 0.5)"/>
</clipPath>
</defs>
</svg>
