<svg width="33" height="32" viewBox="0 0 33 32" fill="none" xmlns="http://www.w3.org/2000/svg">
<path d="M32.75 16C32.75 24.8387 25.5758 32 16.7242 32C9.38226 32 3.20161 27.0774 1.30484 20.3613L7.44677 22.8968C7.85968 24.9677 9.69839 26.5355 11.8919 26.5355C14.421 26.5355 16.5306 24.4452 16.421 21.7935L21.8726 17.9097C25.2339 17.9935 28.0532 15.271 28.0532 11.8774C28.0532 8.54839 25.3435 5.84516 22.0081 5.84516C18.6726 5.84516 15.9629 8.55484 15.9629 11.8774V11.9548L12.1435 17.4839C11.1435 17.4258 10.1629 17.7032 9.3371 18.2645L0.75 14.7161C1.40806 6.47742 8.30484 0 16.7242 0C25.5758 0 32.75 7.16129 32.75 16ZM10.7952 24.2774L8.82742 23.4645C9.18901 24.2154 9.81336 24.8076 10.5823 25.129C12.3177 25.8516 14.3113 25.0258 15.0339 23.2968C15.3823 22.4581 15.3887 21.5355 15.0403 20.6968C14.6919 19.8581 14.0403 19.2 13.2016 18.8516C12.3694 18.5032 11.479 18.5161 10.6919 18.8129L12.7242 19.6516C14.0016 20.1806 14.6081 21.6452 14.0726 22.9226C13.5371 24.2064 12.0726 24.8064 10.7952 24.2774ZM22.0081 15.8968C19.7887 15.8968 17.9823 14.0903 17.9823 11.8774C17.9823 9.66452 19.7887 7.85806 22.0081 7.85806C24.2274 7.85806 26.0339 9.66452 26.0339 11.8774C26.0339 14.0903 24.2339 15.8968 22.0081 15.8968ZM22.0145 14.8903C23.6855 14.8903 25.0403 13.5355 25.0403 11.871C25.0403 10.2 23.6855 8.85161 22.0145 8.85161C20.3435 8.85161 18.9887 10.2065 18.9887 11.871C18.9952 13.5355 20.35 14.8903 22.0145 14.8903Z" fill="#3887FE"/>
</svg>
