<svg width="32" height="33" viewBox="0 0 32 33" fill="none" xmlns="http://www.w3.org/2000/svg">
<path d="M5.90201 27.701L3.65601 2.5H28.344L26.095 27.697L15.985 30.5L5.90201 27.701Z" fill="#1572B6"/>
<path d="M16 28.358L24.17 26.093L26.092 4.56104H16V28.358Z" fill="#33A9DC"/>
<path d="M16 13.6911H20.09L20.372 10.5261H16V7.43506H23.75L23.676 8.26406L22.917 16.7821H16V13.6911Z" fill="white"/>
<path d="M16.019 21.7179L16.005 21.7219L12.563 20.7919L12.343 18.3269H9.23999L9.67299 23.1799L16.004 24.9379L16.019 24.9339V21.7179Z" fill="#EBEBEB"/>
<path d="M19.8271 16.6509L19.4551 20.7899L16.0081 21.7199V24.9359L22.3441 23.1799L22.3911 22.6579L22.9281 16.6509H19.8271Z" fill="white"/>
<path d="M16.0109 7.43506V10.5261H8.54494L8.48294 9.83106L8.34194 8.26406L8.26794 7.43506H16.0109ZM15.9999 13.6911V16.7821H12.6009L12.5389 16.0871L12.3989 14.5201L12.3249 13.6911H15.9999Z" fill="#EBEBEB"/>
</svg>
