<svg width="32" height="33" viewBox="0 0 32 33" fill="none" xmlns="http://www.w3.org/2000/svg">
<path d="M18.93 17.8L16.977 3.5H16.831C13.4215 3.50579 10.1529 4.86115 7.73976 7.2698C5.32661 9.67845 3.96516 12.9445 3.953 16.354V16.5L18.93 17.8Z" fill="#ED6C47"/>
<path d="M17.1231 3.5H16.9771V16.5L23.4881 19.1L30.0001 16.5V16.354C29.9879 12.9447 28.6266 9.67878 26.2137 7.27015C23.8007 4.86153 20.5324 3.50606 17.1231 3.5Z" fill="#FF8F6B"/>
<path d="M30 16.5V16.643C29.9873 20.053 28.6255 23.3193 26.2121 25.7284C23.7988 28.1375 20.53 29.4934 17.12 29.5H16.833C13.4232 29.4929 10.1547 28.1368 7.74144 25.7278C5.32817 23.3188 3.9662 20.0528 3.953 16.643V16.5H30Z" fill="#D35230"/>
<path opacity="0.1" d="M17.628 9.88895V23.76C17.6262 23.996 17.5549 24.2262 17.4229 24.4218C17.2909 24.6175 17.1042 24.7699 16.886 24.86C16.7436 24.92 16.5906 24.9509 16.436 24.951H7.02701C6.84446 24.7416 6.67065 24.5247 6.50601 24.301C4.8473 22.0929 3.95128 19.4056 3.95301 16.644V16.358C3.94987 13.8669 4.6791 11.4299 6.05001 9.34995C6.19218 9.12655 6.34433 8.90966 6.50601 8.69995H16.436C16.751 8.70204 17.0525 8.82788 17.2755 9.05033C17.4985 9.27277 17.6251 9.57398 17.628 9.88895Z" fill="black"/>
<path opacity="0.2" d="M16.977 10.5401V24.4111C16.977 24.565 16.946 24.7174 16.886 24.8591C16.7958 25.0771 16.6433 25.2636 16.4477 25.3954C16.252 25.5272 16.0219 25.5984 15.786 25.6001H7.62001C7.41401 25.3908 7.21635 25.1741 7.02701 24.9501C6.84446 24.7407 6.67065 24.5238 6.50601 24.3001C4.8473 22.0921 3.95128 19.4047 3.95301 16.6431V16.3571C3.95006 13.8664 4.67929 11.4297 6.05001 9.3501H15.785C16.1002 9.35219 16.4018 9.47817 16.6249 9.70083C16.8479 9.92349 16.9744 10.225 16.977 10.5401Z" fill="black"/>
<path opacity="0.2" d="M16.977 10.5401V23.1111C16.9741 23.4261 16.8475 23.7273 16.6245 23.9497C16.4015 24.1722 16.1 24.298 15.785 24.3001H6.50601C4.8473 22.0921 3.95128 19.4047 3.95301 16.6431V16.3571C3.95006 13.8664 4.67929 11.4297 6.05001 9.3501H15.785C16.1002 9.35219 16.4018 9.47817 16.6249 9.70083C16.8479 9.92349 16.9744 10.225 16.977 10.5401Z" fill="black"/>
<path opacity="0.2" d="M16.326 10.5401V23.1111C16.3231 23.4261 16.1965 23.7273 15.9735 23.9497C15.7505 24.1722 15.449 24.298 15.134 24.3001H6.50601C4.8473 22.0921 3.95128 19.4047 3.95301 16.6431V16.3571C3.95006 13.8664 4.67929 11.4297 6.05001 9.3501H15.134C15.4492 9.35219 15.7508 9.47817 15.9739 9.70083C16.1969 9.92349 16.3234 10.225 16.326 10.5401Z" fill="black"/>
<path d="M3.194 9.3501H15.132C15.4482 9.34983 15.7516 9.47513 15.9755 9.69846C16.1994 9.92179 16.3255 10.2249 16.326 10.5411V22.4591C16.3255 22.7753 16.1994 23.0784 15.9755 23.3017C15.7516 23.5251 15.4482 23.6504 15.132 23.6501H3.194C3.03738 23.6504 2.88224 23.6198 2.73746 23.56C2.59267 23.5003 2.46108 23.4126 2.35019 23.302C2.2393 23.1914 2.1513 23.06 2.09121 22.9154C2.03113 22.7708 2.00013 22.6157 2 22.4591V10.5411C2.00013 10.3845 2.03113 10.2294 2.09121 10.0848C2.1513 9.94015 2.2393 9.80877 2.35019 9.69817C2.46108 9.58756 2.59267 9.49989 2.73746 9.44016C2.88224 9.38044 3.03738 9.34984 3.194 9.3501Z" fill="url(#paint0_linear_138_958)"/>
<path d="M9.29299 12.5279C10.0701 12.4757 10.8406 12.701 11.467 13.1639C11.7246 13.3932 11.9265 13.6782 12.0575 13.9972C12.1885 14.3161 12.2451 14.6608 12.223 15.0049C12.2317 15.4897 12.1024 15.9669 11.85 16.3809C11.5947 16.7883 11.2269 17.113 10.791 17.3159C10.293 17.5469 9.74883 17.6611 9.19999 17.6499H7.68699V20.4499H6.14099V12.5279H9.29299ZM7.68599 16.4399H9.01699C9.439 16.4703 9.85758 16.3455 10.194 16.0889C10.3316 15.9577 10.4387 15.7979 10.5078 15.6208C10.5769 15.4437 10.6063 15.2536 10.594 15.0639C10.594 14.1913 10.0857 13.7546 9.06899 13.7539H7.68599V16.4399Z" fill="white"/>
<defs>
<linearGradient id="paint0_linear_138_958" x1="4.494" y1="8.4141" x2="13.832" y2="24.5861" gradientUnits="userSpaceOnUse">
<stop stop-color="#CA4C28"/>
<stop offset="0.5" stop-color="#C5401E"/>
<stop offset="1" stop-color="#B62F14"/>
</linearGradient>
</defs>
</svg>
