<svg width="32" height="33" viewBox="0 0 32 33" fill="none" xmlns="http://www.w3.org/2000/svg">
<path d="M5.90203 27.701L3.65503 2.5H28.345L26.095 27.697L15.985 30.5L5.90203 27.701Z" fill="#E44F26"/>
<path d="M16 28.358L24.17 26.093L26.092 4.56104H16V28.358Z" fill="#F1662A"/>
<path d="M16 13.9069H11.91L11.628 10.7419H16V7.65088H8.25L8.324 8.48088L9.083 16.9979H16V13.9069ZM16 21.9339L15.986 21.9379L12.544 21.0089L12.324 18.5439H9.221L9.654 23.3959L15.986 25.1539L16 25.1499V21.9339Z" fill="#EBEBEB"/>
<path d="M15.989 13.9069V16.9979H19.795L19.437 21.0069L15.989 21.9369V25.1529L22.326 23.3959L22.372 22.8739L23.098 14.7369L23.174 13.9069H15.989ZM15.989 7.65088V10.7419H23.455L23.517 10.0479L23.658 8.48088L23.732 7.65088H15.989Z" fill="white"/>
</svg>
