<svg width="48" height="64" viewBox="0 0 48 64" fill="none" xmlns="http://www.w3.org/2000/svg">
<path d="M45 0H3C1.34312 0 0 1.34312 0 3V5C0 6.65688 1.34312 8 3 8C3 19.3706 9.377 28.9667 18.1052 32C9.377 35.0332 3 44.6294 3 56C1.34312 56 0 57.3431 0 59V61C0 62.6569 1.34312 64 3 64H45C46.6569 64 48 62.6569 48 61V59C48 57.3431 46.6569 56 45 56C45 44.6294 38.623 35.0332 29.8948 32C38.623 28.9667 45 19.3706 45 8C46.6569 8 48 6.65688 48 5V3C48 1.34312 46.6569 0 45 0ZM35.6152 48H12.385C14.5174 42.1504 18.897 38 24 38C29.1026 38 33.4827 42.1495 35.6152 48ZM35.6176 16H12.3848C11.4985 13.5685 11 10.8435 11 8H37C37 10.8506 36.5016 13.5734 35.6176 16Z" fill="url(#paint0_linear_83_707)"/>
<defs>
<linearGradient id="paint0_linear_83_707" x1="0" y1="32" x2="48" y2="32" gradientUnits="userSpaceOnUse">
<stop stop-color="#3887FE"/>
<stop offset="1" stop-color="#CBEAF6"/>
</linearGradient>
</defs>
</svg>
