<svg width="33" height="32" viewBox="0 0 33 32" fill="none" xmlns="http://www.w3.org/2000/svg">
<path d="M13.5179 0.314695C7.30535 1.52721 2.29902 6.52104 1.074 12.7149C-1.23854 24.4026 9.30538 33.1152 17.2493 31.8839C19.8243 31.4839 21.0868 28.4714 19.9055 26.1526C18.4618 23.3151 20.5243 20.0025 23.7119 20.0025H28.6932C30.9307 20.0025 32.7432 18.1525 32.7495 15.9212C32.7183 6.07104 23.7556 -1.67909 13.5179 0.314695ZM6.74909 20.0025C5.64282 20.0025 4.74906 19.1087 4.74906 18.0025C4.74906 16.8962 5.64282 16.0024 6.74909 16.0024C7.85536 16.0024 8.74912 16.8962 8.74912 18.0025C8.74912 19.1087 7.85536 20.0025 6.74909 20.0025ZM8.74912 12.0024C7.64285 12.0024 6.74909 11.1086 6.74909 10.0023C6.74909 8.89608 7.64285 8.00232 8.74912 8.00232C9.85539 8.00232 10.7492 8.89608 10.7492 10.0023C10.7492 11.1086 9.85539 12.0024 8.74912 12.0024ZM16.7492 8.00232C15.643 8.00232 14.7492 7.10855 14.7492 6.00229C14.7492 4.89602 15.643 4.00225 16.7492 4.00225C17.8555 4.00225 18.7493 4.89602 18.7493 6.00229C18.7493 7.10855 17.8555 8.00232 16.7492 8.00232ZM24.7494 12.0024C23.6431 12.0024 22.7493 11.1086 22.7493 10.0023C22.7493 8.89608 23.6431 8.00232 24.7494 8.00232C25.8556 8.00232 26.7494 8.89608 26.7494 10.0023C26.7494 11.1086 25.8556 12.0024 24.7494 12.0024Z" fill="#3887FE"/>
</svg>
