<svg width="41" height="32" viewBox="0 0 41 32" fill="none" xmlns="http://www.w3.org/2000/svg">
<path d="M17.7012 31.9688L13.8884 30.8625C13.4884 30.75 13.2634 30.3312 13.3759 29.9312L21.9078 0.541467C22.0203 0.141437 22.4391 -0.0835797 22.8391 0.0289288L26.6519 1.13526C27.0519 1.24777 27.2769 1.66655 27.1644 2.06658L18.6325 31.4563C18.5138 31.8563 18.1012 32.0876 17.7012 31.9688ZM10.5757 24.9558L13.2946 22.0556C13.5822 21.7493 13.5634 21.2618 13.2446 20.9805L7.5817 15.9989L13.2446 11.0173C13.5634 10.736 13.5884 10.2484 13.2946 9.94217L10.5757 7.04196C10.2944 6.74193 9.81937 6.72318 9.5131 7.0107L0.50617 15.4488C0.187396 15.7426 0.187396 16.2489 0.50617 16.5427L9.5131 24.9871C9.81937 25.2746 10.2944 25.2621 10.5757 24.9558ZM31.0272 24.9933L40.0341 16.5489C40.3529 16.2551 40.3529 15.7489 40.0341 15.4551L31.0272 7.00445C30.7272 6.72318 30.2522 6.73568 29.9646 7.03571L27.2457 9.93592C26.9582 10.2422 26.9769 10.7297 27.2957 11.011L32.9586 15.9989L27.2957 20.9805C26.9769 21.2618 26.9519 21.7493 27.2457 22.0556L29.9646 24.9558C30.2459 25.2621 30.7209 25.2746 31.0272 24.9933Z" fill="#3887FE"/>
</svg>
