<svg width="46" height="32" viewBox="0 0 46 32" fill="none" xmlns="http://www.w3.org/2000/svg">
<path d="M44.7545 5.00692C44.2311 3.03608 42.6889 1.48392 40.7308 0.957167C37.1817 0 22.9499 0 22.9499 0C22.9499 0 8.71825 0 5.169 0.957167C3.21092 1.484 1.66875 3.03608 1.14534 5.00692C0.194336 8.57917 0.194336 16.0323 0.194336 16.0323C0.194336 16.0323 0.194336 23.4855 1.14534 27.0578C1.66875 29.0286 3.21092 30.5161 5.169 31.0428C8.71825 32 22.9499 32 22.9499 32C22.9499 32 37.1816 32 40.7308 31.0428C42.6889 30.5161 44.2311 29.0286 44.7545 27.0578C45.7055 23.4855 45.7055 16.0323 45.7055 16.0323C45.7055 16.0323 45.7055 8.57917 44.7545 5.00692ZM18.2953 22.7993V9.26542L30.1903 16.0325L18.2953 22.7993Z" fill="#3887FE"/>
</svg>
