<svg width="46" height="32" viewBox="0 0 46 32" fill="none" xmlns="http://www.w3.org/2000/svg">
<path d="M7.70396 4.57143H4.27539C3.32539 4.57143 2.56111 5.33571 2.56111 6.28571V13.7143H0.846819C0.532533 13.7143 0.275391 13.9714 0.275391 14.2857V17.7143C0.275391 18.0286 0.532533 18.2857 0.846819 18.2857H2.56111V25.7143C2.56111 26.6643 3.32539 27.4286 4.27539 27.4286H7.70396C8.65396 27.4286 9.41825 26.6643 9.41825 25.7143V6.28571C9.41825 5.33571 8.65396 4.57143 7.70396 4.57143ZM45.4183 13.7143H43.704V6.28571C43.704 5.33571 42.9397 4.57143 41.9897 4.57143H38.5611C37.6111 4.57143 36.8468 5.33571 36.8468 6.28571V25.7143C36.8468 26.6643 37.6111 27.4286 38.5611 27.4286H41.9897C42.9397 27.4286 43.704 26.6643 43.704 25.7143V18.2857H45.4183C45.7325 18.2857 45.9897 18.0286 45.9897 17.7143V14.2857C45.9897 13.9714 45.7325 13.7143 45.4183 13.7143ZM32.8468 0H29.4182C28.4682 0 27.704 0.764286 27.704 1.71429V13.7143H18.5611V1.71429C18.5611 0.764286 17.7968 0 16.8468 0H13.4182C12.4682 0 11.704 0.764286 11.704 1.71429V30.2857C11.704 31.2357 12.4682 32 13.4182 32H16.8468C17.7968 32 18.5611 31.2357 18.5611 30.2857V18.2857H27.704V30.2857C27.704 31.2357 28.4682 32 29.4182 32H32.8468C33.7968 32 34.5611 31.2357 34.5611 30.2857V1.71429C34.5611 0.764286 33.7968 0 32.8468 0Z" fill="#3887FE"/>
</svg>
