<svg width="42" height="32" viewBox="0 0 42 32" fill="none" xmlns="http://www.w3.org/2000/svg">
<path d="M39.5047 0.00387899C35.5905 0.226021 27.8105 1.03459 23.0077 3.97457C22.6762 4.17743 22.4884 4.53814 22.4884 4.91528V30.9059C22.4884 31.7309 23.3905 32.2523 24.1512 31.8694C29.0926 29.3823 36.239 28.7037 39.7726 28.518C40.979 28.4545 41.9168 27.4873 41.9168 26.328V2.19673C41.9176 0.931732 40.8204 -0.0704064 39.5047 0.00387899ZM19.6841 3.97457C14.882 1.03459 7.10202 0.226735 3.18775 0.00387899C1.87204 -0.0704064 0.774902 0.931732 0.774902 2.19673V26.3288C0.774902 27.4887 1.71276 28.4559 2.91918 28.5187C6.45416 28.7045 13.6041 29.3837 18.5455 31.8723C19.3041 32.2544 20.2034 31.7337 20.2034 30.9109V4.90243C20.2034 4.52457 20.0162 4.17814 19.6841 3.97457Z" fill="#3887FE"/>
</svg>
